<svg xmlns="http://www.w3.org/2000/svg" version="1.1" xmlns:xlink="http://www.w3.org/1999/xlink" xmlns:svgjs="http://svgjs.com/svgjs" width="1440" height="560" preserveAspectRatio="none" viewBox="0 0 1440 560"><g mask="url(&quot;#SvgjsMask1021&quot;)" fill="none"><rect width="1440" height="560" x="0" y="0" fill="#0e2a47"></rect><path d="M276 557L-5 838" stroke-width="10" stroke="url(#SvgjsLinearGradient1022)" stroke-linecap="round" class="TopRight"></path><path d="M604 307L237 674" stroke-width="10" stroke="url(#SvgjsLinearGradient1023)" stroke-linecap="round" class="BottomLeft"></path><path d="M1389 295L1716 -32" stroke-width="6" stroke="url(#SvgjsLinearGradient1023)" stroke-linecap="round" class="BottomLeft"></path><path d="M569 508L812 265" stroke-width="10" stroke="url(#SvgjsLinearGradient1023)" stroke-linecap="round" class="BottomLeft"></path><path d="M970 479L1246 203" stroke-width="10" stroke="url(#SvgjsLinearGradient1023)" stroke-linecap="round" class="BottomLeft"></path><path d="M990 110L1190 -90" stroke-width="10" stroke="url(#SvgjsLinearGradient1023)" stroke-linecap="round" class="BottomLeft"></path><path d="M950 277L756 471" stroke-width="8" stroke="url(#SvgjsLinearGradient1022)" stroke-linecap="round" class="TopRight"></path><path d="M645 266L912 -1" stroke-width="10" stroke="url(#SvgjsLinearGradient1022)" stroke-linecap="round" class="TopRight"></path><path d="M243 102L-137 482" stroke-width="10" stroke="url(#SvgjsLinearGradient1023)" stroke-linecap="round" class="BottomLeft"></path><path d="M473 426L862 37" stroke-width="10" stroke="url(#SvgjsLinearGradient1022)" stroke-linecap="round" class="TopRight"></path><path d="M1028 405L703 730" stroke-width="10" stroke="url(#SvgjsLinearGradient1023)" stroke-linecap="round" class="BottomLeft"></path><path d="M1259 532L848 943" stroke-width="8" stroke="url(#SvgjsLinearGradient1023)" stroke-linecap="round" class="BottomLeft"></path><path d="M809 500L488 821" stroke-width="10" stroke="url(#SvgjsLinearGradient1023)" stroke-linecap="round" class="BottomLeft"></path><path d="M676 396L844 228" stroke-width="8" stroke="url(#SvgjsLinearGradient1022)" stroke-linecap="round" class="TopRight"></path><path d="M855 96L534 417" stroke-width="6" stroke="url(#SvgjsLinearGradient1023)" stroke-linecap="round" class="BottomLeft"></path><path d="M1235 93L1547 -219" stroke-width="10" stroke="url(#SvgjsLinearGradient1023)" stroke-linecap="round" class="BottomLeft"></path><path d="M199 15L444 -230" stroke-width="6" stroke="url(#SvgjsLinearGradient1023)" stroke-linecap="round" class="BottomLeft"></path><path d="M698 529L976 251" stroke-width="8" stroke="url(#SvgjsLinearGradient1023)" stroke-linecap="round" class="BottomLeft"></path><path d="M642 91L254 479" stroke-width="8" stroke="url(#SvgjsLinearGradient1023)" stroke-linecap="round" class="BottomLeft"></path><path d="M623 431L834 220" stroke-width="8" stroke="url(#SvgjsLinearGradient1022)" stroke-linecap="round" class="TopRight"></path><path d="M647 439L333 753" stroke-width="10" stroke="url(#SvgjsLinearGradient1023)" stroke-linecap="round" class="BottomLeft"></path><path d="M1245 96L1463 -122" stroke-width="6" stroke="url(#SvgjsLinearGradient1023)" stroke-linecap="round" class="BottomLeft"></path><path d="M313 436L633 116" stroke-width="8" stroke="url(#SvgjsLinearGradient1023)" stroke-linecap="round" class="BottomLeft"></path><path d="M454 106L633 -73" stroke-width="6" stroke="url(#SvgjsLinearGradient1023)" stroke-linecap="round" class="BottomLeft"></path><path d="M777 39L574 242" stroke-width="8" stroke="url(#SvgjsLinearGradient1022)" stroke-linecap="round" class="TopRight"></path><path d="M987 311L666 632" stroke-width="10" stroke="url(#SvgjsLinearGradient1023)" stroke-linecap="round" class="BottomLeft"></path><path d="M391 158L9 540" stroke-width="8" stroke="url(#SvgjsLinearGradient1022)" stroke-linecap="round" class="TopRight"></path><path d="M1236 418L980 674" stroke-width="6" stroke="url(#SvgjsLinearGradient1023)" stroke-linecap="round" class="BottomLeft"></path><path d="M577 4L326 255" stroke-width="8" stroke="url(#SvgjsLinearGradient1022)" stroke-linecap="round" class="TopRight"></path><path d="M458 134L821 -229" stroke-width="10" stroke="url(#SvgjsLinearGradient1022)" stroke-linecap="round" class="TopRight"></path><path d="M707 1L368 340" stroke-width="8" stroke="url(#SvgjsLinearGradient1023)" stroke-linecap="round" class="BottomLeft"></path><path d="M1179 302L876 605" stroke-width="10" stroke="url(#SvgjsLinearGradient1023)" stroke-linecap="round" class="BottomLeft"></path><path d="M1182 102L1486 -202" stroke-width="8" stroke="url(#SvgjsLinearGradient1023)" stroke-linecap="round" class="BottomLeft"></path><path d="M179 119L513 -215" stroke-width="8" stroke="url(#SvgjsLinearGradient1023)" stroke-linecap="round" class="BottomLeft"></path><path d="M128 468L516 80" stroke-width="8" stroke="url(#SvgjsLinearGradient1023)" stroke-linecap="round" class="BottomLeft"></path><path d="M397 75L139 333" stroke-width="10" stroke="url(#SvgjsLinearGradient1023)" stroke-linecap="round" class="BottomLeft"></path><path d="M1356 5L1510 -149" stroke-width="6" stroke="url(#SvgjsLinearGradient1022)" stroke-linecap="round" class="TopRight"></path><path d="M216 436L435 217" stroke-width="10" stroke="url(#SvgjsLinearGradient1022)" stroke-linecap="round" class="TopRight"></path><path d="M202 462L-55 719" stroke-width="10" stroke="url(#SvgjsLinearGradient1023)" stroke-linecap="round" class="BottomLeft"></path></g><defs><mask id="SvgjsMask1021"><rect width="1440" height="560" fill="#ffffff"></rect></mask><linearGradient x1="0%" y1="100%" x2="100%" y2="0%" id="SvgjsLinearGradient1022"><stop stop-color="rgba(28, 83, 142, 0)" offset="0"></stop><stop stop-color="#1c538e" offset="1"></stop></linearGradient><linearGradient x1="100%" y1="0%" x2="0%" y2="100%" id="SvgjsLinearGradient1023"><stop stop-color="rgba(28, 83, 142, 0)" offset="0"></stop><stop stop-color="#1c538e" offset="1"></stop></linearGradient></defs></svg>