<svg width="375" height="382" viewBox="0 0 375 382" fill="none" xmlns="http://www.w3.org/2000/svg">
<circle cx="434" cy="183" r="199" fill="#FFDBB0"/>
<circle cx="166" cy="-62" r="350" fill="#FEA236" fill-opacity="0.85"/>
<path d="M235 -93C235 16.9047 145.905 106 36 106C-73.9047 106 -163 16.9047 -163 -93C-163 -202.905 -73.9047 -292 36 -292C145.905 -292 235 -202.905 235 -93Z" fill="#FDD09B"/>
<path d="M42.35 171V142.664H32.46V138.8H56.61V142.664H46.72V171H42.35ZM66.9122 171.552C64.6429 171.552 62.6035 171.031 60.7942 169.988C58.9849 168.915 57.5589 167.443 56.5162 165.572C55.5042 163.671 54.9982 161.493 54.9982 159.04C54.9982 156.464 55.5195 154.241 56.5622 152.37C57.6049 150.499 59.0309 149.058 60.8402 148.046C62.6495 147.034 64.6735 146.528 66.9122 146.528C69.1509 146.528 71.1595 147.034 72.9382 148.046C74.7475 149.058 76.1735 150.499 77.2162 152.37C78.2895 154.21 78.8262 156.403 78.8262 158.948C78.8262 161.493 78.3049 163.717 77.2622 165.618C76.2195 167.489 74.7935 168.945 72.9842 169.988C71.2055 171.031 69.1815 171.552 66.9122 171.552ZM66.9122 167.872C69.3349 167.872 71.2209 167.059 72.5702 165.434C73.9195 163.778 74.5942 161.647 74.5942 159.04C74.5942 157.445 74.2569 155.989 73.5822 154.67C72.9075 153.321 71.9875 152.247 70.8222 151.45C69.6875 150.622 68.3842 150.208 66.9122 150.208C64.4895 150.208 62.6035 151.005 61.2542 152.6C59.9049 154.195 59.2302 156.311 59.2302 158.948C59.2302 160.543 59.5675 162.03 60.2422 163.41C60.9169 164.759 61.8215 165.848 62.9562 166.676C64.1215 167.473 65.4402 167.872 66.9122 167.872ZM84.306 181.12V153.198C84.306 152.155 84.0453 151.419 83.524 150.99C83.0333 150.53 82.3893 150.3 81.592 150.3L82.466 147.08C85.2873 147.08 87.0506 148.199 87.756 150.438C88.0626 149.978 88.5533 149.441 89.228 148.828C89.9333 148.215 90.792 147.678 91.804 147.218C92.8466 146.758 94.0273 146.528 95.346 146.528C97.186 146.528 98.9033 147.019 100.498 148C102.123 148.951 103.427 150.346 104.408 152.186C105.389 153.995 105.88 156.203 105.88 158.81C105.88 161.355 105.389 163.594 104.408 165.526C103.427 167.427 102.139 168.915 100.544 169.988C98.98 171.031 97.278 171.552 95.438 171.552C94.0273 171.552 92.7086 171.276 91.482 170.724C90.2553 170.141 89.2433 169.482 88.446 168.746V181.12H84.306ZM94.61 167.872C96.6953 167.872 98.382 167.059 99.67 165.434C100.989 163.778 101.648 161.616 101.648 158.948C101.648 157.108 101.311 155.529 100.636 154.21C99.992 152.891 99.118 151.879 98.014 151.174C96.9406 150.469 95.7446 150.116 94.426 150.116C93.1073 150.116 91.9113 150.453 90.838 151.128C89.7953 151.772 88.998 152.477 88.446 153.244V165.02C89.2433 165.848 90.1633 166.538 91.206 167.09C92.2486 167.611 93.3833 167.872 94.61 167.872ZM118.911 171.552C117.5 171.552 116.228 171.291 115.093 170.77C113.958 170.218 113.054 169.344 112.379 168.148C111.735 166.952 111.413 165.403 111.413 163.502V136.96H115.553V163.088C115.553 164.744 115.89 165.971 116.565 166.768C117.27 167.565 118.236 167.964 119.463 167.964C120.046 167.964 120.613 167.903 121.165 167.78C121.748 167.627 122.238 167.458 122.637 167.274L123.649 170.632C123.097 170.877 122.407 171.092 121.579 171.276C120.782 171.46 119.892 171.552 118.911 171.552ZM134.691 171.552C133.311 171.552 132.008 171.261 130.781 170.678C129.555 170.095 128.558 169.16 127.791 167.872C127.025 166.553 126.641 164.805 126.641 162.628V147.08H130.781V162.076C130.781 163.947 131.18 165.388 131.977 166.4C132.775 167.381 133.94 167.872 135.473 167.872C136.731 167.872 137.942 167.627 139.107 167.136C140.303 166.615 141.361 165.925 142.281 165.066V147.08H146.421V164.79C146.421 166.109 146.697 166.983 147.249 167.412C147.832 167.811 148.461 168.01 149.135 168.01L148.261 171.23C145.409 171.23 143.646 170.095 142.971 167.826C141.898 168.93 140.656 169.835 139.245 170.54C137.835 171.215 136.317 171.552 134.691 171.552ZM161.901 171.552C160.49 171.552 159.218 171.291 158.083 170.77C156.948 170.218 156.044 169.344 155.369 168.148C154.725 166.952 154.403 165.403 154.403 163.502V136.96H158.543V163.088C158.543 164.744 158.88 165.971 159.555 166.768C160.26 167.565 161.226 167.964 162.453 167.964C163.036 167.964 163.603 167.903 164.155 167.78C164.738 167.627 165.228 167.458 165.627 167.274L166.639 170.632C166.087 170.877 165.397 171.092 164.569 171.276C163.772 171.46 162.882 171.552 161.901 171.552ZM177.682 171.552C176.302 171.552 174.998 171.261 173.772 170.678C172.545 170.095 171.548 169.16 170.782 167.872C170.015 166.553 169.632 164.805 169.632 162.628V147.08H173.772V162.076C173.772 163.947 174.17 165.388 174.968 166.4C175.765 167.381 176.93 167.872 178.464 167.872C179.721 167.872 180.932 167.627 182.098 167.136C183.294 166.615 184.352 165.925 185.272 165.066V147.08H189.412V164.79C189.412 166.109 189.688 166.983 190.24 167.412C190.822 167.811 191.451 168.01 192.126 168.01L191.252 171.23C188.4 171.23 186.636 170.095 185.962 167.826C184.888 168.93 183.646 169.835 182.236 170.54C180.825 171.215 179.307 171.552 177.682 171.552ZM206.593 145.884C208.219 145.884 209.675 146.191 210.963 146.804C212.282 147.417 213.401 148.353 214.321 149.61H214.551L215.103 146.344H218.323V171.414C218.323 173.745 217.925 175.692 217.127 177.256C216.33 178.851 215.119 180.047 213.493 180.844C211.868 181.641 209.798 182.04 207.283 182.04C205.505 182.04 203.864 181.902 202.361 181.626C200.889 181.381 199.571 180.997 198.405 180.476V176.75C199.203 177.149 200.077 177.486 201.027 177.762C201.978 178.069 203.005 178.299 204.109 178.452C205.213 178.605 206.348 178.682 207.513 178.682C209.629 178.682 211.285 178.053 212.481 176.796C213.708 175.569 214.321 173.883 214.321 171.736V170.77C214.321 170.402 214.337 169.881 214.367 169.206C214.398 168.501 214.429 168.01 214.459 167.734H214.275C213.417 168.991 212.343 169.927 211.055 170.54C209.798 171.153 208.326 171.46 206.639 171.46C203.45 171.46 200.951 170.341 199.141 168.102C197.363 165.863 196.473 162.735 196.473 158.718C196.473 156.081 196.872 153.811 197.669 151.91C198.497 149.978 199.663 148.491 201.165 147.448C202.668 146.405 204.477 145.884 206.593 145.884ZM207.145 149.288C205.765 149.288 204.585 149.656 203.603 150.392C202.653 151.128 201.917 152.201 201.395 153.612C200.905 155.023 200.659 156.74 200.659 158.764C200.659 161.8 201.211 164.131 202.315 165.756C203.45 167.351 205.091 168.148 207.237 168.148C208.495 168.148 209.568 167.995 210.457 167.688C211.347 167.351 212.083 166.845 212.665 166.17C213.248 165.465 213.677 164.575 213.953 163.502C214.229 162.429 214.367 161.156 214.367 159.684V158.718C214.367 156.479 214.107 154.67 213.585 153.29C213.095 151.91 212.313 150.898 211.239 150.254C210.166 149.61 208.801 149.288 207.145 149.288ZM214.735 136.96C214.643 138.187 214.291 139.26 213.677 140.18C213.095 141.1 212.282 141.821 211.239 142.342C210.197 142.863 208.939 143.124 207.467 143.124C205.198 143.124 203.481 142.572 202.315 141.468C201.181 140.333 200.552 138.831 200.429 136.96H202.913C203.005 137.788 203.235 138.417 203.603 138.846C204.002 139.245 204.523 139.521 205.167 139.674C205.842 139.797 206.639 139.858 207.559 139.858C208.357 139.858 209.077 139.781 209.721 139.628C210.396 139.475 210.948 139.199 211.377 138.8C211.837 138.371 212.113 137.757 212.205 136.96H214.735ZM235.078 171.552C233.085 171.552 231.275 171.046 229.65 170.034C228.025 169.022 226.721 167.596 225.74 165.756C224.789 163.885 224.314 161.693 224.314 159.178C224.314 156.786 224.789 154.639 225.74 152.738C226.721 150.837 228.055 149.334 229.742 148.23C231.459 147.095 233.422 146.528 235.63 146.528C237.01 146.528 238.252 146.773 239.356 147.264C240.491 147.724 241.472 148.307 242.3 149.012V147.08H246.072V165.204C246.072 166.369 246.348 167.136 246.9 167.504C247.483 167.841 248.111 168.01 248.786 168.01L247.912 171.23C244.968 171.23 243.189 170.034 242.576 167.642C241.871 168.623 240.905 169.528 239.678 170.356C238.482 171.153 236.949 171.552 235.078 171.552ZM235.998 167.872C237.163 167.872 238.267 167.596 239.31 167.044C240.353 166.461 241.227 165.741 241.932 164.882V152.048C241.104 151.465 240.184 151.005 239.172 150.668C238.191 150.3 237.148 150.116 236.044 150.116C234.572 150.116 233.269 150.499 232.134 151.266C231.03 152.002 230.156 153.045 229.512 154.394C228.868 155.713 228.546 157.261 228.546 159.04C228.546 160.757 228.868 162.291 229.512 163.64C230.156 164.959 231.045 166.001 232.18 166.768C233.315 167.504 234.587 167.872 235.998 167.872ZM36.14 225V192.8H40.51V206.554H56.38V192.8H60.75V225H56.38V210.326H40.51V225H36.14ZM78.6368 225.552C76.3675 225.552 74.3281 225.031 72.5188 223.988C70.7095 222.915 69.2835 221.443 68.2408 219.572C67.2288 217.671 66.7228 215.493 66.7228 213.04C66.7228 210.464 67.2441 208.241 68.2868 206.37C69.3295 204.499 70.7555 203.058 72.5648 202.046C74.3741 201.034 76.3981 200.528 78.6368 200.528C80.8755 200.528 82.8841 201.034 84.6628 202.046C86.4721 203.058 87.8981 204.499 88.9408 206.37C90.0141 208.21 90.5508 210.403 90.5508 212.948C90.5508 215.493 90.0295 217.717 88.9868 219.618C87.9441 221.489 86.5181 222.945 84.7088 223.988C82.9301 225.031 80.9061 225.552 78.6368 225.552ZM78.6368 221.872C81.0595 221.872 82.9455 221.059 84.2948 219.434C85.6441 217.778 86.3188 215.647 86.3188 213.04C86.3188 211.445 85.9815 209.989 85.3068 208.67C84.6321 207.321 83.7121 206.247 82.5468 205.45C81.4121 204.622 80.1088 204.208 78.6368 204.208C76.2141 204.208 74.3281 205.005 72.9788 206.6C71.6295 208.195 70.9548 210.311 70.9548 212.948C70.9548 214.543 71.2921 216.03 71.9668 217.41C72.6415 218.759 73.5461 219.848 74.6808 220.676C75.8461 221.473 77.1648 221.872 78.6368 221.872ZM102.495 225.552C100.686 225.552 99.045 225.322 97.573 224.862C96.1317 224.402 94.9357 223.804 93.985 223.068L95.733 219.618C96.5303 220.293 97.527 220.86 98.723 221.32C99.9497 221.749 101.253 221.964 102.633 221.964C104.35 221.964 105.638 221.688 106.497 221.136C107.386 220.553 107.831 219.817 107.831 218.928C107.831 218.284 107.662 217.717 107.325 217.226C107.018 216.735 106.436 216.26 105.577 215.8C104.718 215.309 103.476 214.788 101.851 214.236C99.6123 213.469 97.9257 212.565 96.791 211.522C95.687 210.449 95.135 208.977 95.135 207.106C95.135 205.266 95.9323 203.717 97.527 202.46C99.1523 201.172 101.391 200.528 104.243 200.528C105.776 200.528 107.141 200.697 108.337 201.034C109.533 201.341 110.606 201.739 111.557 202.23L110.407 205.634C109.579 205.143 108.628 204.745 107.555 204.438C106.512 204.131 105.347 203.978 104.059 203.978C102.464 203.978 101.253 204.3 100.425 204.944C99.597 205.588 99.183 206.293 99.183 207.06C99.183 207.796 99.505 208.425 100.149 208.946C100.793 209.467 102.05 210.035 103.921 210.648C106.957 211.66 109.073 212.779 110.269 214.006C111.465 215.233 112.063 216.766 112.063 218.606C112.063 220.753 111.189 222.455 109.441 223.712C107.724 224.939 105.408 225.552 102.495 225.552ZM102.263 236.224C101.435 236.224 100.638 236.147 99.8712 235.994C99.1045 235.841 98.3685 235.611 97.6632 235.304L98.7672 232.406C99.7792 232.927 100.883 233.188 102.079 233.188C102.877 233.188 103.536 233.05 104.057 232.774C104.579 232.498 104.839 232.069 104.839 231.486C104.839 230.934 104.471 230.443 103.735 230.014C103.03 229.585 101.665 229.37 99.6412 229.37L101.251 225H104.379L103.413 227.714C104.947 227.714 106.189 228.051 107.139 228.726C108.09 229.431 108.565 230.459 108.565 231.808C108.565 232.943 108.044 233.955 107.001 234.844C105.959 235.764 104.379 236.224 102.263 236.224ZM142.818 225.552C140.334 225.552 138.126 224.908 136.194 223.62C134.262 222.332 132.744 220.507 131.64 218.146C130.536 215.754 129.984 212.948 129.984 209.728C129.984 206.293 130.566 203.273 131.732 200.666C132.897 198.029 134.568 195.974 136.746 194.502C138.954 192.999 141.606 192.248 144.704 192.248C146.697 192.248 148.476 192.493 150.04 192.984C151.604 193.475 153.076 194.103 154.456 194.87L152.846 198.504C151.558 197.799 150.239 197.216 148.89 196.756C147.571 196.296 146.099 196.066 144.474 196.066C142.542 196.066 140.824 196.587 139.322 197.63C137.819 198.642 136.623 200.145 135.734 202.138C134.875 204.131 134.446 206.569 134.446 209.452C134.446 212.028 134.844 214.236 135.642 216.076C136.439 217.885 137.543 219.281 138.954 220.262C140.364 221.243 141.99 221.734 143.83 221.734C145.547 221.734 147.065 221.381 148.384 220.676C149.733 219.94 150.791 219.189 151.558 218.422V211.384H144.888V207.934H155.698V225H151.834V221.78C150.76 222.731 149.457 223.605 147.924 224.402C146.39 225.169 144.688 225.552 142.818 225.552ZM171.928 225.552C168.493 225.552 165.764 224.463 163.74 222.286C161.746 220.078 160.75 216.996 160.75 213.04C160.75 210.648 161.194 208.517 162.084 206.646C163.004 204.745 164.276 203.257 165.902 202.184C167.527 201.08 169.413 200.528 171.56 200.528C173.86 200.528 175.761 201.034 177.264 202.046C178.797 203.027 179.947 204.361 180.714 206.048C181.48 207.735 181.864 209.59 181.864 211.614C181.864 212.687 181.818 213.73 181.726 214.742H164.982C165.258 216.981 166.04 218.729 167.328 219.986C168.616 221.243 170.318 221.872 172.434 221.872C173.814 221.872 175.056 221.734 176.16 221.458C177.264 221.151 178.322 220.768 179.334 220.308L180.3 223.85C179.196 224.341 177.954 224.739 176.574 225.046C175.194 225.383 173.645 225.552 171.928 225.552ZM164.936 211.384H178.046C178.046 209.053 177.463 207.259 176.298 206.002C175.132 204.745 173.522 204.116 171.468 204.116C169.689 204.116 168.217 204.745 167.052 206.002C165.886 207.229 165.181 209.023 164.936 211.384ZM194.649 225.552C193.239 225.552 191.966 225.291 190.831 224.77C189.697 224.218 188.792 223.344 188.117 222.148C187.473 220.952 187.151 219.403 187.151 217.502V190.96H191.291V217.088C191.291 218.744 191.629 219.971 192.303 220.768C193.009 221.565 193.975 221.964 195.201 221.964C195.784 221.964 196.351 221.903 196.903 221.78C197.486 221.627 197.977 221.458 198.375 221.274L199.387 224.632C198.835 224.877 198.145 225.092 197.317 225.276C196.52 225.46 195.631 225.552 194.649 225.552ZM211.672 225.552C209.709 225.552 207.915 225.046 206.29 224.034C204.664 223.022 203.376 221.596 202.426 219.756C201.475 217.885 201 215.693 201 213.178C201 210.755 201.475 208.593 202.426 206.692C203.407 204.791 204.695 203.288 206.29 202.184C207.915 201.08 209.694 200.528 211.626 200.528C213.22 200.528 214.585 200.85 215.72 201.494C216.885 202.138 217.79 202.797 218.434 203.472V190.96H222.574V219.204C222.574 220.369 222.85 221.136 223.402 221.504C223.984 221.841 224.613 222.01 225.288 222.01L224.414 225.23C221.5 225.23 219.722 224.065 219.078 221.734C218.403 222.685 217.452 223.559 216.226 224.356C215.03 225.153 213.512 225.552 211.672 225.552ZM212.592 221.872C213.726 221.872 214.8 221.611 215.812 221.09C216.854 220.538 217.728 219.833 218.434 218.974V207.106C217.851 206.37 217.038 205.695 215.996 205.082C214.953 204.438 213.803 204.116 212.546 204.116C211.074 204.116 209.786 204.515 208.682 205.312C207.578 206.109 206.719 207.183 206.106 208.532C205.523 209.851 205.232 211.353 205.232 213.04C205.232 214.727 205.554 216.245 206.198 217.594C206.842 218.913 207.716 219.955 208.82 220.722C209.954 221.489 211.212 221.872 212.592 221.872ZM230.821 225V201.08H234.961V225H230.821ZM232.891 196.986C232.093 196.986 231.403 196.695 230.821 196.112C230.269 195.529 229.993 194.855 229.993 194.088C229.993 193.199 230.253 192.493 230.775 191.972C231.296 191.451 232.001 191.19 232.891 191.19C233.688 191.19 234.363 191.481 234.915 192.064C235.497 192.616 235.789 193.291 235.789 194.088C235.789 194.947 235.528 195.652 235.007 196.204C234.485 196.725 233.78 196.986 232.891 196.986ZM242.321 225V201.08H246.323V205.082C247.181 203.794 248.27 202.721 249.589 201.862C250.938 200.973 252.533 200.528 254.373 200.528C257.071 200.528 259.08 201.341 260.399 202.966C261.748 204.591 262.423 206.738 262.423 209.406V225H258.283V209.866C258.283 208.149 257.869 206.769 257.041 205.726C256.243 204.683 255.124 204.162 253.683 204.162C252.272 204.162 250.938 204.668 249.681 205.68C248.423 206.661 247.35 207.827 246.461 209.176V225H242.321Z" fill="white"/>
<g clip-path="url(#clip0_292_86)">
<path d="M20.9999 47.605C24.7892 47.605 25.3225 45.5518 25.3225 43.7095C25.3225 42.2371 25.1093 40.7646 24.8955 39.288C24.6817 37.8115 24.468 36.3932 24.468 34.919C24.468 30.0764 27.6704 28.0232 32.2061 28.0232H44.4717L44.2149 30.9186H32.3674C29.2187 30.9186 28.151 32.6031 28.151 35.4455C28.151 36.6559 28.3111 37.9192 28.5249 39.1826C28.738 40.499 28.8981 41.7617 28.8981 43.1835C28.9518 46.5519 27.4572 48.2364 25.0561 48.8684V48.9738C27.4572 49.5528 28.9518 51.3421 28.8981 54.7111C28.8981 56.1323 28.738 57.4481 28.5249 58.7114C28.3111 60.0278 28.151 61.2381 28.151 62.5015C28.151 65.4464 29.3787 67.0814 32.3674 67.0814H33.3275V69.9751H32.2067C27.7778 69.9751 24.468 68.0815 24.468 62.7648C24.468 61.3436 24.6817 59.8699 24.8949 58.4481C25.1081 57.0263 25.3219 55.6057 25.3219 54.1845C25.3219 52.553 24.7886 50.2896 20.9993 50.2896L20.9999 47.605Z" fill="black"/>
<path d="M32.4658 69.975L47.056 18.9988H50.6119L35.9698 69.975H32.4658Z" fill="black"/>
<path d="M69.0005 50.395C65.2112 50.395 64.6779 52.4476 64.6779 54.2899C64.6779 55.7624 64.8911 57.2348 65.1043 58.7114C65.3174 60.188 65.5312 61.6068 65.5312 63.0805C65.5312 67.9237 62.3294 69.9763 57.7931 69.9763H45.5281L45.7848 67.0814H57.633C60.7817 67.0814 61.8493 65.3969 61.8493 62.5545C61.8493 61.3436 61.6893 60.0808 61.4755 58.8168C61.2624 57.5011 61.1023 56.2377 61.1023 54.8165C61.0486 51.4475 62.5432 49.763 64.9442 49.1317V49.0262C62.5432 48.4473 61.0486 46.6573 61.1023 43.2884C61.1023 41.8672 61.2624 40.5514 61.4755 39.288C61.6893 37.9722 61.8493 36.7613 61.8493 35.4979C61.8493 32.553 60.6216 30.9186 57.633 30.9186H56.6728V28.0232H57.7931C62.2225 28.0232 65.5312 29.9185 65.5312 35.2353C65.5312 36.6565 65.318 38.1301 65.1043 39.5513C64.8905 40.9725 64.6779 42.3937 64.6779 43.8149C64.6779 45.447 65.2112 47.7104 69.0005 47.7104V50.395Z" fill="black"/>
<path d="M57.5345 28.0232L42.9443 79H39.3884L54.0306 28.0232H57.5345Z" fill="black"/>
<path d="M54.3656 19L48.3299 40.0855H46.8604L52.917 19H54.3656Z" fill="black"/>
<path d="M43.1414 57.9128L37.1062 78.9983H35.6343L41.6915 57.9128H43.1414Z" fill="black"/>
</g>
<path d="M75.2559 32.6211V41H74.1719V32.6211H75.2559ZM75.3145 30.3945V31.5078H74.1133V30.3945H75.3145ZM76.5801 32.6211H77.7812L80.1953 36.998L82.6445 32.6211H83.9043L80.7051 38.0703V41H79.6211V38.0703L76.5801 32.6211ZM90.7012 32.6211V33.5H88.0645V41H86.9805V33.5H84.3438V32.6211H90.7012ZM97.4746 32.6211V33.5H93.0801V36.3125H97.2695V37.1914H93.0801V40.1211H97.5625V41H91.9961V32.6211H97.4746ZM73.1465 45.6211H74.3477L76.7617 49.998L79.2109 45.6211H80.4707L77.2715 51.0703V54H76.1875V51.0703L73.1465 45.6211ZM81.2031 52.1426C81.2031 50.8809 82.0352 50.25 83.6992 50.25C84.2344 50.25 84.7695 50.2891 85.3047 50.3672V49.7871C85.3047 49.0801 84.752 48.7266 83.6465 48.7266C83.0137 48.7266 82.3652 48.8242 81.7012 49.0195V48.1406C82.3652 47.9453 83.0137 47.8477 83.6465 47.8477C85.4746 47.8477 86.3887 48.4844 86.3887 49.7578V54H85.7793L85.4043 53.3906C84.791 53.7969 84.123 54 83.4004 54C81.9355 54 81.2031 53.3809 81.2031 52.1426ZM83.6992 51.1289C82.7578 51.1289 82.2871 51.4609 82.2871 52.125C82.2871 52.7891 82.6582 53.1211 83.4004 53.1211C84.1504 53.1211 84.7852 52.9219 85.3047 52.5234V51.2461C84.7695 51.168 84.2344 51.1289 83.6992 51.1289ZM87.9766 47.8477H92.7812V48.7266L89.1074 53.1797H92.6641V54H87.8594V53.1797L91.5801 48.7266H87.9766V47.8477ZM95.4473 47.8477V54H94.3633V47.8477H95.4473ZM98.4707 45.6211V54H97.3867V45.6211H98.4707ZM101.494 47.8477V54H100.41V47.8477H101.494ZM103.375 54V47.8477H104.107L104.289 48.6211C104.879 48.1055 105.521 47.8477 106.217 47.8477C107.107 47.8477 107.715 48.1289 108.039 48.6914C108.707 48.1289 109.385 47.8477 110.072 47.8477C111.486 47.8477 112.193 48.627 112.193 50.1855V54H111.109V50.127C111.109 49.209 110.723 48.75 109.949 48.75C109.371 48.75 108.83 49.0156 108.326 49.5469V54H107.242V50.1445C107.242 49.2148 106.859 48.75 106.094 48.75C105.484 48.75 104.939 49.0156 104.459 49.5469V54H103.375ZM79.6504 58.6211V59.5H77.0137V67H75.9297V59.5H73.293V58.6211H79.6504ZM81.6191 63.9004C81.6191 65.3809 82.2344 66.1211 83.4648 66.1211C84.6953 66.1211 85.3105 65.3809 85.3105 63.9004C85.3105 62.4512 84.6953 61.7266 83.4648 61.7266C82.2344 61.7266 81.6191 62.4512 81.6191 63.9004ZM80.5352 63.9238C80.5352 61.873 81.5117 60.8477 83.4648 60.8477C85.418 60.8477 86.3945 61.873 86.3945 63.9238C86.3945 65.9707 85.418 66.9941 83.4648 66.9941C81.5195 66.9941 80.543 65.9707 80.5352 63.9238ZM88.9434 65.7461C89.3691 65.957 89.8438 66.0625 90.3672 66.0625C91.6445 66.0625 92.2832 65.2949 92.2832 63.7598C92.2832 62.4199 91.6484 61.75 90.3789 61.75C89.832 61.75 89.3535 61.7969 88.9434 61.8906V65.7461ZM87.8594 61.0996C88.6758 60.9316 89.5195 60.8477 90.3906 60.8477C92.3633 60.8477 93.3496 61.8223 93.3496 63.7715C93.3496 65.9238 92.3574 67 90.373 67C89.8809 67 89.4043 66.9023 88.9434 66.707V69.2266H87.8594V61.0996ZM95.9629 58.6211V67H94.8789V58.6211H95.9629ZM103.088 60.8477V67H102.344L102.156 66.2148C101.41 66.7383 100.66 67 99.9062 67C98.4922 67 97.7852 66.2363 97.7852 64.709V60.8477H98.8691V64.7266C98.8691 65.6406 99.3223 66.0977 100.229 66.0977C100.85 66.0977 101.441 65.8379 102.004 65.3184V60.8477H103.088ZM105.994 58.6211V67H104.91V58.6211H105.994ZM113.119 60.8477V67H112.375L112.188 66.2148C111.441 66.7383 110.691 67 109.938 67C108.523 67 107.816 66.2363 107.816 64.709V60.8477H108.9V64.7266C108.9 65.6406 109.354 66.0977 110.26 66.0977C110.881 66.0977 111.473 65.8379 112.035 65.3184V60.8477H113.119ZM118.996 61.8906C118.625 61.7969 118.166 61.75 117.619 61.75C116.311 61.75 115.656 62.459 115.656 63.877C115.656 65.334 116.275 66.0625 117.514 66.0625C118.076 66.0625 118.57 65.957 118.996 65.7461V61.8906ZM120.08 67C120.08 68.4844 119.137 69.2266 117.25 69.2266C116.492 69.2266 115.82 69.1289 115.234 68.9336V68.0547C115.832 68.25 116.508 68.3477 117.262 68.3477C118.418 68.3477 118.996 67.8984 118.996 67V66.707C118.535 66.9023 118.039 67 117.508 67C115.562 67 114.59 65.9629 114.59 63.8887C114.59 61.8613 115.615 60.8477 117.666 60.8477C118.498 60.8477 119.303 60.9316 120.08 61.0996V67ZM116.02 58.6211H116.811C116.811 59.207 117.064 59.5 117.572 59.5C118.08 59.5 118.334 59.207 118.334 58.6211H119.125C119.125 59.6367 118.607 60.1445 117.572 60.1445C116.537 60.1445 116.02 59.6367 116.02 58.6211ZM127.146 60.8477V67H126.402L126.215 66.2148C125.469 66.7383 124.719 67 123.965 67C122.551 67 121.844 66.2363 121.844 64.709V60.8477H122.928V64.7266C122.928 65.6406 123.381 66.0977 124.287 66.0977C124.908 66.0977 125.5 65.8379 126.062 65.3184V60.8477H127.146Z" fill="black"/>
<defs>
<clipPath id="clip0_292_86">
<rect width="48" height="60" fill="white" transform="translate(21 19)"/>
</clipPath>
</defs>
</svg>
