<svg width="375" height="382" viewBox="0 0 375 382" fill="none" xmlns="http://www.w3.org/2000/svg">
<circle cx="434" cy="183" r="199" fill="#FFDBB0"/>
<circle cx="166" cy="-62" r="350" fill="#FEA236" fill-opacity="0.85"/>
<path d="M235 -93C235 16.9047 145.905 106 36 106C-73.9047 106 -163 16.9047 -163 -93C-163 -202.905 -73.9047 -292 36 -292C145.905 -292 235 -202.905 235 -93Z" fill="#FDD09B"/>
<path d="M62.266 175.46L58.678 166.26H43.774L40.186 175.368L36.46 173.85L49.064 142.8H53.848L66.268 173.85L62.266 175.46ZM45.154 162.58H57.252L51.226 147.124L45.154 162.58ZM70.4066 175V151.08H74.4086V156.278C74.8072 155.266 75.3439 154.331 76.0186 153.472C76.6932 152.583 77.5366 151.877 78.5486 151.356C79.5606 150.804 80.7412 150.528 82.0906 150.528C82.5506 150.528 83.0106 150.559 83.4706 150.62C83.9306 150.651 84.3139 150.712 84.6206 150.804L83.3786 155.082C82.7959 154.837 82.1059 154.714 81.3086 154.714C80.1739 154.714 79.0852 155.036 78.0426 155.68C77.0306 156.324 76.1872 157.321 75.5126 158.67C74.8686 160.019 74.5466 161.737 74.5466 163.822V175H70.4066ZM96.541 175.552C94.5477 175.552 92.7384 175.046 91.113 174.034C89.4877 173.022 88.1844 171.596 87.203 169.756C86.2524 167.885 85.777 165.693 85.777 163.178C85.777 160.786 86.2524 158.639 87.203 156.738C88.1844 154.837 89.5184 153.334 91.205 152.23C92.9224 151.095 94.885 150.528 97.093 150.528C98.473 150.528 99.715 150.773 100.819 151.264C101.954 151.724 102.935 152.307 103.763 153.012V151.08H107.535V169.204C107.535 170.369 107.811 171.136 108.363 171.504C108.946 171.841 109.574 172.01 110.249 172.01L109.375 175.23C106.431 175.23 104.652 174.034 104.039 171.642C103.334 172.623 102.368 173.528 101.141 174.356C99.945 175.153 98.4117 175.552 96.541 175.552ZM97.461 171.872C98.6264 171.872 99.7304 171.596 100.773 171.044C101.816 170.461 102.69 169.741 103.395 168.882V156.048C102.567 155.465 101.647 155.005 100.635 154.668C99.6537 154.3 98.611 154.116 97.507 154.116C96.035 154.116 94.7317 154.499 93.597 155.266C92.493 156.002 91.619 157.045 90.975 158.394C90.331 159.713 90.009 161.261 90.009 163.04C90.009 164.757 90.331 166.291 90.975 167.64C91.619 168.959 92.5084 170.001 93.643 170.768C94.7777 171.504 96.0504 171.872 97.461 171.872ZM115.778 175V151.08H119.78V155.082C120.638 153.794 121.727 152.721 123.046 151.862C124.364 150.973 125.867 150.528 127.554 150.528C129.455 150.528 131.004 150.988 132.2 151.908C133.426 152.828 134.285 154.055 134.776 155.588C135.726 154.177 136.846 152.981 138.134 152C139.452 151.019 141.078 150.528 143.01 150.528C145.616 150.528 147.548 151.356 148.806 153.012C150.094 154.637 150.738 156.769 150.738 159.406V175H146.598V159.728C146.598 158.072 146.214 156.738 145.448 155.726C144.681 154.683 143.623 154.162 142.274 154.162C140.894 154.162 139.606 154.683 138.41 155.726C137.244 156.738 136.217 157.934 135.328 159.314V175H131.188V159.728C131.188 158.072 130.804 156.738 130.038 155.726C129.271 154.683 128.213 154.162 126.864 154.162C125.514 154.162 124.242 154.668 123.046 155.68C121.85 156.661 120.807 157.827 119.918 159.176V175H115.778ZM157.869 175V151.08H162.009V175H157.869ZM167.299 175V171.734L180.501 154.668H167.575V151.08H185.561V154.254L172.405 171.32H185.791V175H167.299ZM199.772 175.552C197.778 175.552 195.969 175.046 194.344 174.034C192.718 173.022 191.415 171.596 190.434 169.756C189.483 167.885 189.008 165.693 189.008 163.178C189.008 160.786 189.483 158.639 190.434 156.738C191.415 154.837 192.749 153.334 194.436 152.23C196.153 151.095 198.116 150.528 200.324 150.528C201.704 150.528 202.946 150.773 204.05 151.264C205.184 151.724 206.166 152.307 206.994 153.012V151.08H210.766V169.204C210.766 170.369 211.042 171.136 211.594 171.504C212.176 171.841 212.805 172.01 213.48 172.01L212.606 175.23C209.662 175.23 207.883 174.034 207.27 171.642C206.564 172.623 205.598 173.528 204.372 174.356C203.176 175.153 201.642 175.552 199.772 175.552ZM200.692 171.872C201.857 171.872 202.961 171.596 204.004 171.044C205.046 170.461 205.92 169.741 206.626 168.882V156.048C205.798 155.465 204.878 155.005 203.866 154.668C202.884 154.3 201.842 154.116 200.738 154.116C199.266 154.116 197.962 154.499 196.828 155.266C195.724 156.002 194.85 157.045 194.206 158.394C193.562 159.713 193.24 161.261 193.24 163.04C193.24 164.757 193.562 166.291 194.206 167.64C194.85 168.959 195.739 170.001 196.874 170.768C198.008 171.504 199.281 171.872 200.692 171.872ZM60.15 229.552L44.51 214.188V229H40.14V196.8H44.51V211.474L58.218 196.662L61.162 199.376L48.604 212.44L63.186 226.424L60.15 229.552ZM76.461 229.552C74.4676 229.552 72.6583 229.046 71.033 228.034C69.4076 227.022 68.1043 225.596 67.123 223.756C66.1723 221.885 65.697 219.693 65.697 217.178C65.697 214.786 66.1723 212.639 67.123 210.738C68.1043 208.837 69.4383 207.334 71.125 206.23C72.8423 205.095 74.805 204.528 77.013 204.528C78.393 204.528 79.635 204.773 80.739 205.264C81.8736 205.724 82.855 206.307 83.683 207.012V205.08H87.455V223.204C87.455 224.369 87.731 225.136 88.283 225.504C88.8656 225.841 89.4943 226.01 90.169 226.01L89.295 229.23C86.351 229.23 84.5723 228.034 83.959 225.642C83.2536 226.623 82.2876 227.528 81.061 228.356C79.865 229.153 78.3316 229.552 76.461 229.552ZM77.381 225.872C78.5463 225.872 79.6503 225.596 80.693 225.044C81.7356 224.461 82.6096 223.741 83.315 222.882V210.048C82.487 209.465 81.567 209.005 80.555 208.668C79.5736 208.3 78.531 208.116 77.427 208.116C75.955 208.116 74.6516 208.499 73.517 209.266C72.413 210.002 71.539 211.045 70.895 212.394C70.251 213.713 69.929 215.261 69.929 217.04C69.929 218.757 70.251 220.291 70.895 221.64C71.539 222.959 72.4283 224.001 73.563 224.768C74.6976 225.504 75.9703 225.872 77.381 225.872ZM104.07 229.552C101.77 229.552 99.9449 228.801 98.5956 227.298C97.2769 225.765 96.6176 223.587 96.6176 220.766V209.542H92.4776V205.954H96.7096L97.5836 198.41H100.758V205.954H107.382V209.542H100.758V221.088C100.758 222.867 101.126 224.109 101.862 224.814C102.628 225.519 103.533 225.872 104.576 225.872C105.342 225.872 106.063 225.749 106.738 225.504C107.443 225.259 108.087 224.967 108.67 224.63L109.82 227.942C109.206 228.31 108.378 228.663 107.336 229C106.293 229.368 105.204 229.552 104.07 229.552ZM113.981 229V205.08H118.121V229H113.981ZM132.749 229.552C131.338 229.552 130.065 229.291 128.931 228.77C127.796 228.218 126.891 227.344 126.217 226.148C125.573 224.952 125.251 223.403 125.251 221.502V194.96H129.391V221.088C129.391 222.744 129.728 223.971 130.403 224.768C131.108 225.565 132.074 225.964 133.301 225.964C133.883 225.964 134.451 225.903 135.003 225.78C135.585 225.627 136.076 225.458 136.475 225.274L137.487 228.632C136.935 228.877 136.245 229.092 135.417 229.276C134.619 229.46 133.73 229.552 132.749 229.552Z" fill="white"/>
<g clip-path="url(#clip0_266_26)">
<path d="M21 47.605C24.7894 47.605 25.3226 45.5518 25.3226 43.7095C25.3226 42.2371 25.1095 40.7646 24.8957 39.288C24.6819 37.8115 24.4682 36.3932 24.4682 34.919C24.4682 30.0764 27.6705 28.0232 32.2063 28.0232H44.4719L44.2151 30.9186H32.3675C29.2189 30.9186 28.1512 32.6031 28.1512 35.4455C28.1512 36.6559 28.3113 37.9192 28.525 39.1826C28.7382 40.499 28.8982 41.7617 28.8982 43.1835C28.952 46.5519 27.4574 48.2364 25.0563 48.8684V48.9738C27.4574 49.5528 28.952 51.3421 28.8982 54.7111C28.8982 56.1323 28.7382 57.4481 28.525 58.7114C28.3113 60.0278 28.1512 61.2381 28.1512 62.5015C28.1512 65.4464 29.3789 67.0814 32.3675 67.0814H33.3277V69.9751H32.2069C27.778 69.9751 24.4682 68.0815 24.4682 62.7648C24.4682 61.3436 24.6819 59.8699 24.8951 58.4481C25.1083 57.0263 25.322 55.6057 25.322 54.1845C25.322 52.553 24.7888 50.2896 20.9995 50.2896L21 47.605Z" fill="black"/>
<path d="M32.4661 69.975L47.0563 18.9988H50.6121L35.97 69.975H32.4661Z" fill="black"/>
<path d="M69.0006 50.395C65.2113 50.395 64.678 52.4476 64.678 54.2899C64.678 55.7624 64.8912 57.2348 65.1044 58.7114C65.3176 60.188 65.5313 61.6068 65.5313 63.0805C65.5313 67.9237 62.3295 69.9763 57.7932 69.9763H45.5282L45.785 67.0814H57.6331C60.7818 67.0814 61.8495 65.3969 61.8495 62.5545C61.8495 61.3436 61.6894 60.0808 61.4757 58.8168C61.2625 57.5011 61.1024 56.2377 61.1024 54.8165C61.0487 51.4475 62.5433 49.763 64.9444 49.1317V49.0262C62.5433 48.4473 61.0487 46.6573 61.1024 43.2884C61.1024 41.8672 61.2625 40.5514 61.4757 39.288C61.6894 37.9722 61.8495 36.7613 61.8495 35.4979C61.8495 32.553 60.6218 30.9186 57.6331 30.9186H56.673V28.0232H57.7932C62.2227 28.0232 65.5313 29.9185 65.5313 35.2353C65.5313 36.6565 65.3182 38.1301 65.1044 39.5513C64.8906 40.9725 64.678 42.3937 64.678 43.8149C64.678 45.447 65.2113 47.7104 69.0006 47.7104V50.395Z" fill="black"/>
<path d="M57.5346 28.0232L42.9444 79H39.3885L54.0307 28.0232H57.5346Z" fill="black"/>
<path d="M54.3656 19L48.3299 40.0855H46.8604L52.917 19H54.3656Z" fill="black"/>
<path d="M43.1415 57.9128L37.1063 78.9983H35.6344L41.6916 57.9128H43.1415Z" fill="black"/>
</g>
<path d="M75.2559 32.6211V41H74.1719V32.6211H75.2559ZM75.3145 30.3945V31.5078H74.1133V30.3945H75.3145ZM76.5801 32.6211H77.7812L80.1953 36.998L82.6445 32.6211H83.9043L80.7051 38.0703V41H79.6211V38.0703L76.5801 32.6211ZM90.7012 32.6211V33.5H88.0645V41H86.9805V33.5H84.3438V32.6211H90.7012ZM97.4746 32.6211V33.5H93.0801V36.3125H97.2695V37.1914H93.0801V40.1211H97.5625V41H91.9961V32.6211H97.4746ZM73.1465 45.6211H74.3477L76.7617 49.998L79.2109 45.6211H80.4707L77.2715 51.0703V54H76.1875V51.0703L73.1465 45.6211ZM81.2031 52.1426C81.2031 50.8809 82.0352 50.25 83.6992 50.25C84.2344 50.25 84.7695 50.2891 85.3047 50.3672V49.7871C85.3047 49.0801 84.752 48.7266 83.6465 48.7266C83.0137 48.7266 82.3652 48.8242 81.7012 49.0195V48.1406C82.3652 47.9453 83.0137 47.8477 83.6465 47.8477C85.4746 47.8477 86.3887 48.4844 86.3887 49.7578V54H85.7793L85.4043 53.3906C84.791 53.7969 84.123 54 83.4004 54C81.9355 54 81.2031 53.3809 81.2031 52.1426ZM83.6992 51.1289C82.7578 51.1289 82.2871 51.4609 82.2871 52.125C82.2871 52.7891 82.6582 53.1211 83.4004 53.1211C84.1504 53.1211 84.7852 52.9219 85.3047 52.5234V51.2461C84.7695 51.168 84.2344 51.1289 83.6992 51.1289ZM87.9766 47.8477H92.7812V48.7266L89.1074 53.1797H92.6641V54H87.8594V53.1797L91.5801 48.7266H87.9766V47.8477ZM95.4473 47.8477V54H94.3633V47.8477H95.4473ZM98.4707 45.6211V54H97.3867V45.6211H98.4707ZM101.494 47.8477V54H100.41V47.8477H101.494ZM103.375 54V47.8477H104.107L104.289 48.6211C104.879 48.1055 105.521 47.8477 106.217 47.8477C107.107 47.8477 107.715 48.1289 108.039 48.6914C108.707 48.1289 109.385 47.8477 110.072 47.8477C111.486 47.8477 112.193 48.627 112.193 50.1855V54H111.109V50.127C111.109 49.209 110.723 48.75 109.949 48.75C109.371 48.75 108.83 49.0156 108.326 49.5469V54H107.242V50.1445C107.242 49.2148 106.859 48.75 106.094 48.75C105.484 48.75 104.939 49.0156 104.459 49.5469V54H103.375ZM79.6504 58.6211V59.5H77.0137V67H75.9297V59.5H73.293V58.6211H79.6504ZM81.6191 63.9004C81.6191 65.3809 82.2344 66.1211 83.4648 66.1211C84.6953 66.1211 85.3105 65.3809 85.3105 63.9004C85.3105 62.4512 84.6953 61.7266 83.4648 61.7266C82.2344 61.7266 81.6191 62.4512 81.6191 63.9004ZM80.5352 63.9238C80.5352 61.873 81.5117 60.8477 83.4648 60.8477C85.418 60.8477 86.3945 61.873 86.3945 63.9238C86.3945 65.9707 85.418 66.9941 83.4648 66.9941C81.5195 66.9941 80.543 65.9707 80.5352 63.9238ZM88.9434 65.7461C89.3691 65.957 89.8438 66.0625 90.3672 66.0625C91.6445 66.0625 92.2832 65.2949 92.2832 63.7598C92.2832 62.4199 91.6484 61.75 90.3789 61.75C89.832 61.75 89.3535 61.7969 88.9434 61.8906V65.7461ZM87.8594 61.0996C88.6758 60.9316 89.5195 60.8477 90.3906 60.8477C92.3633 60.8477 93.3496 61.8223 93.3496 63.7715C93.3496 65.9238 92.3574 67 90.373 67C89.8809 67 89.4043 66.9023 88.9434 66.707V69.2266H87.8594V61.0996ZM95.9629 58.6211V67H94.8789V58.6211H95.9629ZM103.088 60.8477V67H102.344L102.156 66.2148C101.41 66.7383 100.66 67 99.9062 67C98.4922 67 97.7852 66.2363 97.7852 64.709V60.8477H98.8691V64.7266C98.8691 65.6406 99.3223 66.0977 100.229 66.0977C100.85 66.0977 101.441 65.8379 102.004 65.3184V60.8477H103.088ZM105.994 58.6211V67H104.91V58.6211H105.994ZM113.119 60.8477V67H112.375L112.188 66.2148C111.441 66.7383 110.691 67 109.938 67C108.523 67 107.816 66.2363 107.816 64.709V60.8477H108.9V64.7266C108.9 65.6406 109.354 66.0977 110.26 66.0977C110.881 66.0977 111.473 65.8379 112.035 65.3184V60.8477H113.119ZM118.996 61.8906C118.625 61.7969 118.166 61.75 117.619 61.75C116.311 61.75 115.656 62.459 115.656 63.877C115.656 65.334 116.275 66.0625 117.514 66.0625C118.076 66.0625 118.57 65.957 118.996 65.7461V61.8906ZM120.08 67C120.08 68.4844 119.137 69.2266 117.25 69.2266C116.492 69.2266 115.82 69.1289 115.234 68.9336V68.0547C115.832 68.25 116.508 68.3477 117.262 68.3477C118.418 68.3477 118.996 67.8984 118.996 67V66.707C118.535 66.9023 118.039 67 117.508 67C115.562 67 114.59 65.9629 114.59 63.8887C114.59 61.8613 115.615 60.8477 117.666 60.8477C118.498 60.8477 119.303 60.9316 120.08 61.0996V67ZM116.02 58.6211H116.811C116.811 59.207 117.064 59.5 117.572 59.5C118.08 59.5 118.334 59.207 118.334 58.6211H119.125C119.125 59.6367 118.607 60.1445 117.572 60.1445C116.537 60.1445 116.02 59.6367 116.02 58.6211ZM127.146 60.8477V67H126.402L126.215 66.2148C125.469 66.7383 124.719 67 123.965 67C122.551 67 121.844 66.2363 121.844 64.709V60.8477H122.928V64.7266C122.928 65.6406 123.381 66.0977 124.287 66.0977C124.908 66.0977 125.5 65.8379 126.062 65.3184V60.8477H127.146Z" fill="black"/>
<defs>
<clipPath id="clip0_266_26">
<rect width="48" height="60" fill="white" transform="translate(21 19)"/>
</clipPath>
</defs>
</svg>
