<svg width="375" height="382" viewBox="0 0 375 382" fill="none" xmlns="http://www.w3.org/2000/svg">
<circle cx="434" cy="183" r="199" fill="#FFDBB0"/>
<circle cx="166" cy="-62" r="350" fill="#FEA236" fill-opacity="0.85"/>
<path d="M235 -93C235 16.9047 145.905 106 36 106C-73.9047 106 -163 16.9047 -163 -93C-163 -202.905 -73.9047 -292 36 -292C145.905 -292 235 -202.905 235 -93Z" fill="#FDD09B"/>
<path d="M43.084 175.552C41.6733 175.552 40.3393 175.307 39.082 174.816C37.8553 174.325 36.828 173.681 36 172.884L38.116 169.526C38.7293 170.17 39.4653 170.707 40.324 171.136C41.1827 171.565 42.0567 171.78 42.946 171.78C44.418 171.78 45.5833 171.259 46.442 170.216C47.3007 169.143 47.73 167.349 47.73 164.834V142.8H52.1V164.374C52.1 168.269 51.272 171.105 49.616 172.884C47.96 174.663 45.7827 175.552 43.084 175.552ZM69.5196 175.552C67.2503 175.552 65.211 175.031 63.4016 173.988C61.5923 172.915 60.1663 171.443 59.1236 169.572C58.1116 167.671 57.6056 165.493 57.6056 163.04C57.6056 160.464 58.127 158.241 59.1696 156.37C60.2123 154.499 61.6383 153.058 63.4476 152.046C65.257 151.034 67.281 150.528 69.5196 150.528C71.7583 150.528 73.767 151.034 75.5456 152.046C77.355 153.058 78.781 154.499 79.8236 156.37C80.897 158.21 81.4336 160.403 81.4336 162.948C81.4336 165.493 80.9123 167.717 79.8696 169.618C78.827 171.489 77.401 172.945 75.5916 173.988C73.813 175.031 71.789 175.552 69.5196 175.552ZM69.5196 171.872C71.9423 171.872 73.8283 171.059 75.1776 169.434C76.527 167.778 77.2016 165.647 77.2016 163.04C77.2016 161.445 76.8643 159.989 76.1896 158.67C75.515 157.321 74.595 156.247 73.4296 155.45C72.295 154.622 70.9916 154.208 69.5196 154.208C67.097 154.208 65.211 155.005 63.8616 156.6C62.5123 158.195 61.8376 160.311 61.8376 162.948C61.8376 164.543 62.175 166.03 62.8496 167.41C63.5243 168.759 64.429 169.848 65.5636 170.676C66.729 171.473 68.0476 171.872 69.5196 171.872ZM86.9378 175V151.08H91.0778V175H86.9378ZM89.0078 146.986C88.2105 146.986 87.5205 146.695 86.9378 146.112C86.3858 145.529 86.1098 144.855 86.1098 144.088C86.1098 143.199 86.3705 142.493 86.8918 141.972C87.4131 141.451 88.1185 141.19 89.0078 141.19C89.8051 141.19 90.4798 141.481 91.0318 142.064C91.6145 142.616 91.9058 143.291 91.9058 144.088C91.9058 144.947 91.6451 145.652 91.1238 146.204C90.6025 146.725 89.8971 146.986 89.0078 146.986ZM98.4378 175V151.08H102.44V155.082C103.298 153.794 104.387 152.721 105.706 151.862C107.055 150.973 108.65 150.528 110.49 150.528C113.188 150.528 115.197 151.341 116.516 152.966C117.865 154.591 118.54 156.738 118.54 159.406V175H114.4V159.866C114.4 158.149 113.986 156.769 113.158 155.726C112.36 154.683 111.241 154.162 109.8 154.162C108.389 154.162 107.055 154.668 105.798 155.68C104.54 156.661 103.467 157.827 102.578 159.176V175H98.4378ZM51.364 229.552C47.6533 229.552 44.74 228.448 42.624 226.24C40.508 224.032 39.45 220.873 39.45 216.764V196.8H43.82V216.074C43.82 219.141 44.4487 221.517 45.706 223.204C46.9633 224.891 48.8493 225.734 51.364 225.734C53.9707 225.734 55.918 224.921 57.206 223.296C58.494 221.64 59.138 219.233 59.138 216.074V196.8H63.37V216.58C63.37 219.279 62.864 221.609 61.852 223.572C60.8707 225.504 59.4753 226.991 57.666 228.034C55.8873 229.046 53.7867 229.552 51.364 229.552ZM76.9364 229.552C75.1271 229.552 73.4864 229.322 72.0144 228.862C70.5731 228.402 69.3771 227.804 68.4264 227.068L70.1744 223.618C70.9717 224.293 71.9684 224.86 73.1644 225.32C74.3911 225.749 75.6944 225.964 77.0744 225.964C78.7917 225.964 80.0797 225.688 80.9384 225.136C81.8277 224.553 82.2724 223.817 82.2724 222.928C82.2724 222.284 82.1037 221.717 81.7664 221.226C81.4597 220.735 80.8771 220.26 80.0184 219.8C79.1597 219.309 77.9177 218.788 76.2924 218.236C74.0537 217.469 72.3671 216.565 71.2324 215.522C70.1284 214.449 69.5764 212.977 69.5764 211.106C69.5764 209.266 70.3737 207.717 71.9684 206.46C73.5937 205.172 75.8324 204.528 78.6844 204.528C80.2177 204.528 81.5824 204.697 82.7784 205.034C83.9744 205.341 85.0477 205.739 85.9984 206.23L84.8484 209.634C84.0204 209.143 83.0697 208.745 81.9964 208.438C80.9537 208.131 79.7884 207.978 78.5004 207.978C76.9057 207.978 75.6944 208.3 74.8664 208.944C74.0384 209.588 73.6244 210.293 73.6244 211.06C73.6244 211.796 73.9464 212.425 74.5904 212.946C75.2344 213.467 76.4917 214.035 78.3624 214.648C81.3984 215.66 83.5144 216.779 84.7104 218.006C85.9064 219.233 86.5044 220.766 86.5044 222.606C86.5044 224.753 85.6304 226.455 83.8824 227.712C82.1651 228.939 79.8497 229.552 76.9364 229.552Z" fill="white"/>
<g clip-path="url(#clip0_271_17)">
<path d="M21 47.605C24.7894 47.605 25.3226 45.5518 25.3226 43.7095C25.3226 42.2371 25.1094 40.7646 24.8956 39.288C24.6819 37.8115 24.4681 36.3932 24.4681 34.919C24.4681 30.0764 27.6705 28.0232 32.2063 28.0232H44.4718L44.2151 30.9186H32.3675C29.2188 30.9186 28.1512 32.6031 28.1512 35.4455C28.1512 36.6559 28.3112 37.9192 28.525 39.1826C28.7381 40.499 28.8982 41.7617 28.8982 43.1835C28.9519 46.5519 27.4573 48.2364 25.0563 48.8684V48.9738C27.4573 49.5528 28.9519 51.3421 28.8982 54.7111C28.8982 56.1323 28.7381 57.4481 28.525 58.7114C28.3112 60.0278 28.1512 61.2381 28.1512 62.5015C28.1512 65.4464 29.3789 67.0814 32.3675 67.0814H33.3277V69.9751H32.2069C27.778 69.9751 24.4681 68.0815 24.4681 62.7648C24.4681 61.3436 24.6819 59.8699 24.895 58.4481C25.1082 57.0263 25.322 55.6057 25.322 54.1845C25.322 52.553 24.7888 50.2896 20.9994 50.2896L21 47.605Z" fill="black"/>
<path d="M32.4661 69.975L47.0563 18.9988H50.6121L35.97 69.975H32.4661Z" fill="black"/>
<path d="M69.0006 50.395C65.2113 50.395 64.678 52.4476 64.678 54.2899C64.678 55.7624 64.8912 57.2348 65.1044 58.7114C65.3176 60.188 65.5313 61.6068 65.5313 63.0805C65.5313 67.9237 62.3295 69.9763 57.7932 69.9763H45.5282L45.785 67.0814H57.6331C60.7818 67.0814 61.8495 65.3969 61.8495 62.5545C61.8495 61.3436 61.6894 60.0808 61.4757 58.8168C61.2625 57.5011 61.1024 56.2377 61.1024 54.8165C61.0487 51.4475 62.5433 49.763 64.9444 49.1317V49.0262C62.5433 48.4473 61.0487 46.6573 61.1024 43.2884C61.1024 41.8672 61.2625 40.5514 61.4757 39.288C61.6894 37.9722 61.8495 36.7613 61.8495 35.4979C61.8495 32.553 60.6218 30.9186 57.6331 30.9186H56.673V28.0232H57.7932C62.2227 28.0232 65.5313 29.9185 65.5313 35.2353C65.5313 36.6565 65.3182 38.1301 65.1044 39.5513C64.8906 40.9725 64.678 42.3937 64.678 43.8149C64.678 45.447 65.2113 47.7104 69.0006 47.7104V50.395Z" fill="black"/>
<path d="M57.5346 28.0232L42.9444 79H39.3885L54.0307 28.0232H57.5346Z" fill="black"/>
<path d="M54.3656 19L48.3299 40.0855H46.8604L52.917 19H54.3656Z" fill="black"/>
<path d="M43.1415 57.9128L37.1063 78.9983H35.6344L41.6916 57.9128H43.1415Z" fill="black"/>
</g>
<path d="M75.2559 32.6211V41H74.1719V32.6211H75.2559ZM77.1367 34.8477H81.9414V35.7266L78.2676 40.1797H81.8242V41H77.0195V40.1797L80.7402 35.7266H77.1367V34.8477ZM83.4062 33.8516H84.0859L84.3203 34.8477H85.9844V35.7266H84.4902V39.2598C84.4902 39.834 84.7383 40.1211 85.2344 40.1211H85.9844V41H84.9531C83.9219 41 83.4062 40.4473 83.4062 39.3418V33.8516ZM89.9043 34.8477C91.6543 34.8477 92.5293 35.7129 92.5293 37.4434C92.5293 37.6895 92.5117 37.9531 92.4766 38.2344H88.1582C88.1582 39.4922 88.8926 40.1211 90.3613 40.1211C91.0605 40.1211 91.6816 40.043 92.2246 39.8867V40.7656C91.6816 40.9219 91.0215 41 90.2441 41C88.1309 41 87.0742 39.9512 87.0742 37.8535C87.0742 35.8496 88.0176 34.8477 89.9043 34.8477ZM88.1582 37.332H91.4863C91.4629 36.2539 90.9355 35.7148 89.9043 35.7148C88.8105 35.7148 88.2285 36.2539 88.1582 37.332ZM98.6172 40.8242C98.1094 40.9414 97.5625 41 96.9766 41C94.7891 41 93.6953 39.9355 93.6953 37.8066C93.6953 35.834 94.7891 34.8477 96.9766 34.8477C97.5625 34.8477 98.1094 34.9062 98.6172 35.0234V35.9023C98.1094 35.7852 97.543 35.7266 96.918 35.7266C95.4922 35.7266 94.7793 36.4199 94.7793 37.8066C94.7793 39.3496 95.4922 40.1211 96.918 40.1211C97.543 40.1211 98.1094 40.0625 98.6172 39.9453V40.8242ZM100 41V32.6211H101.084V35.5156C101.607 35.0703 102.246 34.8477 103 34.8477C104.535 34.8477 105.303 35.6113 105.303 37.1387V41H104.219V37.1211C104.219 36.207 103.764 35.75 102.854 35.75C102.232 35.75 101.643 36.0098 101.084 36.5293V41H100ZM73.8789 53.707V52.7109C74.7578 53.0234 75.707 53.1797 76.7266 53.1797C78.168 53.1797 78.8887 52.6523 78.8887 51.5977C78.8887 50.6992 78.3574 50.25 77.2949 50.25H76.2168C74.4629 50.25 73.5859 49.4883 73.5859 47.9648C73.5859 46.3633 74.709 45.5625 76.9551 45.5625C77.9316 45.5625 78.8398 45.6797 79.6797 45.9141V46.9102C78.8398 46.5977 77.9316 46.4414 76.9551 46.4414C75.4316 46.4414 74.6699 46.9492 74.6699 47.9648C74.6699 48.8633 75.1855 49.3125 76.2168 49.3125H77.2949C79.0801 49.3125 79.9727 50.0742 79.9727 51.5977C79.9727 53.2383 78.8906 54.0586 76.7266 54.0586C75.707 54.0586 74.7578 53.9414 73.8789 53.707ZM82.2285 50.9004C82.2285 52.3809 82.8438 53.1211 84.0742 53.1211C85.3047 53.1211 85.9199 52.3809 85.9199 50.9004C85.9199 49.4512 85.3047 48.7266 84.0742 48.7266C82.8438 48.7266 82.2285 49.4512 82.2285 50.9004ZM81.1445 50.9238C81.1445 48.873 82.1211 47.8477 84.0742 47.8477C86.0273 47.8477 87.0039 48.873 87.0039 50.9238C87.0039 52.9707 86.0273 53.9941 84.0742 53.9941C82.1289 53.9941 81.1523 52.9707 81.1445 50.9238ZM88.4688 54V47.5488C88.4688 46.0605 89.3125 45.3164 91 45.3164C91.4648 45.3164 91.9023 45.3945 92.3125 45.5508V46.4297C91.9258 46.2734 91.4863 46.1953 90.9941 46.1953C90.0332 46.1953 89.5527 46.6309 89.5527 47.502V47.8477H91.457V48.7266H89.5527V54H88.4688ZM92.6406 46.8516H93.3203L93.5547 47.8477H95.2188V48.7266H93.7246V52.2598C93.7246 52.834 93.9727 53.1211 94.4688 53.1211H95.2188V54H94.1875C93.1562 54 92.6406 53.4473 92.6406 52.3418V46.8516ZM95.9277 47.8477H97.0234L98.1133 52.6699L99.7129 47.8477H100.691L102.402 52.6699L103.387 47.8477H104.535L102.93 54H101.939L100.176 49.4004L98.5 54H97.4863L95.9277 47.8477ZM105.332 52.1426C105.332 50.8809 106.164 50.25 107.828 50.25C108.363 50.25 108.898 50.2891 109.434 50.3672V49.7871C109.434 49.0801 108.881 48.7266 107.775 48.7266C107.143 48.7266 106.494 48.8242 105.83 49.0195V48.1406C106.494 47.9453 107.143 47.8477 107.775 47.8477C109.604 47.8477 110.518 48.4844 110.518 49.7578V54H109.908L109.533 53.3906C108.92 53.7969 108.252 54 107.529 54C106.064 54 105.332 53.3809 105.332 52.1426ZM107.828 51.1289C106.887 51.1289 106.416 51.4609 106.416 52.125C106.416 52.7891 106.787 53.1211 107.529 53.1211C108.279 53.1211 108.914 52.9219 109.434 52.5234V51.2461C108.898 51.168 108.363 51.1289 107.828 51.1289ZM112.281 54V47.8477H113.014L113.207 48.6328C113.746 48.1094 114.395 47.8477 115.152 47.8477V48.75C114.418 48.75 113.822 49.0098 113.365 49.5293V54H112.281ZM118.779 47.8477C120.529 47.8477 121.404 48.7129 121.404 50.4434C121.404 50.6895 121.387 50.9531 121.352 51.2344H117.033C117.033 52.4922 117.768 53.1211 119.236 53.1211C119.936 53.1211 120.557 53.043 121.1 52.8867V53.7656C120.557 53.9219 119.896 54 119.119 54C117.006 54 115.949 52.9512 115.949 50.8535C115.949 48.8496 116.893 47.8477 118.779 47.8477ZM117.033 50.332H120.361C120.338 49.2539 119.811 48.7148 118.779 48.7148C117.686 48.7148 117.104 49.2539 117.033 50.332ZM73.8789 66.707V65.7109C74.7578 66.0234 75.707 66.1797 76.7266 66.1797C78.168 66.1797 78.8887 65.6523 78.8887 64.5977C78.8887 63.6992 78.3574 63.25 77.2949 63.25H76.2168C74.4629 63.25 73.5859 62.4883 73.5859 60.9648C73.5859 59.3633 74.709 58.5625 76.9551 58.5625C77.9316 58.5625 78.8398 58.6797 79.6797 58.9141V59.9102C78.8398 59.5977 77.9316 59.4414 76.9551 59.4414C75.4316 59.4414 74.6699 59.9492 74.6699 60.9648C74.6699 61.8633 75.1855 62.3125 76.2168 62.3125H77.2949C79.0801 62.3125 79.9727 63.0742 79.9727 64.5977C79.9727 66.2383 78.8906 67.0586 76.7266 67.0586C75.707 67.0586 74.7578 66.9414 73.8789 66.707ZM82.2285 63.9004C82.2285 65.3809 82.8438 66.1211 84.0742 66.1211C85.3047 66.1211 85.9199 65.3809 85.9199 63.9004C85.9199 62.4512 85.3047 61.7266 84.0742 61.7266C82.8438 61.7266 82.2285 62.4512 82.2285 63.9004ZM81.1445 63.9238C81.1445 61.873 82.1211 60.8477 84.0742 60.8477C86.0273 60.8477 87.0039 61.873 87.0039 63.9238C87.0039 65.9707 86.0273 66.9941 84.0742 66.9941C82.1289 66.9941 81.1523 65.9707 81.1445 63.9238ZM93.0977 66.8242C92.5898 66.9414 92.043 67 91.457 67C89.2695 67 88.1758 65.9355 88.1758 63.8066C88.1758 61.834 89.2695 60.8477 91.457 60.8477C92.043 60.8477 92.5898 60.9062 93.0977 61.0234V61.9023C92.5898 61.7852 92.0234 61.7266 91.3984 61.7266C89.9727 61.7266 89.2598 62.4199 89.2598 63.8066C89.2598 65.3496 89.9727 66.1211 91.3984 66.1211C92.0234 66.1211 92.5898 66.0625 93.0977 65.9453V66.8242ZM95.6816 60.8477V67H94.5977V60.8477H95.6816ZM95.6816 58.6211V59.6465H94.5977V58.6211H95.6816ZM100.1 60.8477C101.85 60.8477 102.725 61.7129 102.725 63.4434C102.725 63.6895 102.707 63.9531 102.672 64.2344H98.3535C98.3535 65.4922 99.0879 66.1211 100.557 66.1211C101.256 66.1211 101.877 66.043 102.42 65.8867V66.7656C101.877 66.9219 101.217 67 100.439 67C98.3262 67 97.2695 65.9512 97.2695 63.8535C97.2695 61.8496 98.2129 60.8477 100.1 60.8477ZM98.3535 63.332H101.682C101.658 62.2539 101.131 61.7148 100.1 61.7148C99.0059 61.7148 98.4238 62.2539 98.3535 63.332ZM104.184 59.8516H104.863L105.098 60.8477H106.762V61.7266H105.268V65.2598C105.268 65.834 105.516 66.1211 106.012 66.1211H106.762V67H105.73C104.699 67 104.184 66.4473 104.184 65.3418V59.8516ZM107.412 60.8477H108.59L110.33 65.6523L112.129 60.8477H113.277L110.723 67.1816C110.27 68.2988 109.59 68.9961 108.684 69.2734L108.268 68.5059C108.955 68.2051 109.455 67.7148 109.768 67.0352L107.412 60.8477Z" fill="black"/>
<defs>
<clipPath id="clip0_271_17">
<rect width="48" height="60" fill="white" transform="translate(21 19)"/>
</clipPath>
</defs>
</svg>
