<svg width="375" height="382" viewBox="0 0 375 382" fill="none" xmlns="http://www.w3.org/2000/svg">
<circle cx="434" cy="183" r="199" fill="#FFDBB0"/>
<circle cx="166" cy="-62" r="350" fill="#FEA236" fill-opacity="0.85"/>
<path d="M235 -93C235 16.9047 145.905 106 36 106C-73.9047 106 -163 16.9047 -163 -93C-163 -202.905 -73.9047 -292 36 -292C145.905 -292 235 -202.905 235 -93Z" fill="#FDD09B"/>
<path d="M41.43 171L32.69 139.858L37.014 138.478L44.282 166.354L51.136 142.158H56.61L63.418 166.354L70.64 138.616L74.688 139.858L65.994 171H60.566L53.758 146.804L46.858 171H41.43ZM87.25 171.552C83.8153 171.552 81.086 170.463 79.062 168.286C77.0686 166.078 76.072 162.996 76.072 159.04C76.072 156.648 76.5166 154.517 77.406 152.646C78.326 150.745 79.5986 149.257 81.224 148.184C82.8493 147.08 84.7353 146.528 86.882 146.528C89.182 146.528 91.0833 147.034 92.586 148.046C94.1193 149.027 95.2693 150.361 96.036 152.048C96.8026 153.735 97.186 155.59 97.186 157.614C97.186 158.687 97.14 159.73 97.048 160.742H80.304C80.58 162.981 81.362 164.729 82.65 165.986C83.938 167.243 85.64 167.872 87.756 167.872C89.136 167.872 90.378 167.734 91.482 167.458C92.586 167.151 93.644 166.768 94.656 166.308L95.622 169.85C94.518 170.341 93.276 170.739 91.896 171.046C90.516 171.383 88.9673 171.552 87.25 171.552ZM80.258 157.384H93.368C93.368 155.053 92.7853 153.259 91.62 152.002C90.4546 150.745 88.8446 150.116 86.79 150.116C85.0113 150.116 83.5393 150.745 82.374 152.002C81.2086 153.229 80.5033 155.023 80.258 157.384ZM109.971 171.552C108.561 171.552 107.288 171.291 106.153 170.77C105.019 170.218 104.114 169.344 103.439 168.148C102.795 166.952 102.473 165.403 102.473 163.502V136.96H106.613V163.088C106.613 164.744 106.951 165.971 107.625 166.768C108.331 167.565 109.297 167.964 110.523 167.964C111.106 167.964 111.673 167.903 112.225 167.78C112.808 167.627 113.299 167.458 113.697 167.274L114.709 170.632C114.157 170.877 113.467 171.092 112.639 171.276C111.842 171.46 110.953 171.552 109.971 171.552ZM127.592 171.552C125.323 171.552 123.329 171.031 121.612 169.988C119.925 168.915 118.622 167.443 117.702 165.572C116.782 163.671 116.322 161.493 116.322 159.04C116.322 156.74 116.782 154.639 117.702 152.738C118.653 150.837 120.002 149.334 121.75 148.23C123.498 147.095 125.553 146.528 127.914 146.528C129.263 146.528 130.444 146.651 131.456 146.896C132.499 147.141 133.495 147.494 134.446 147.954L133.204 151.45C132.345 151.021 131.517 150.714 130.72 150.53C129.953 150.315 129.095 150.208 128.144 150.208C125.997 150.208 124.188 150.99 122.716 152.554C121.275 154.087 120.554 156.219 120.554 158.948C120.554 160.604 120.861 162.107 121.474 163.456C122.087 164.805 122.931 165.879 124.004 166.676C125.108 167.473 126.396 167.872 127.868 167.872C129.033 167.872 130.03 167.749 130.858 167.504C131.686 167.228 132.575 166.845 133.526 166.354L134.814 169.85C133.863 170.371 132.79 170.785 131.594 171.092C130.429 171.399 129.095 171.552 127.592 171.552ZM149.254 171.552C146.985 171.552 144.945 171.031 143.136 169.988C141.327 168.915 139.901 167.443 138.858 165.572C137.846 163.671 137.34 161.493 137.34 159.04C137.34 156.464 137.861 154.241 138.904 152.37C139.947 150.499 141.373 149.058 143.182 148.046C144.991 147.034 147.015 146.528 149.254 146.528C151.493 146.528 153.501 147.034 155.28 148.046C157.089 149.058 158.515 150.499 159.558 152.37C160.631 154.21 161.168 156.403 161.168 158.948C161.168 161.493 160.647 163.717 159.604 165.618C158.561 167.489 157.135 168.945 155.326 169.988C153.547 171.031 151.523 171.552 149.254 171.552ZM149.254 167.872C151.677 167.872 153.563 167.059 154.912 165.434C156.261 163.778 156.936 161.647 156.936 159.04C156.936 157.445 156.599 155.989 155.924 154.67C155.249 153.321 154.329 152.247 153.164 151.45C152.029 150.622 150.726 150.208 149.254 150.208C146.831 150.208 144.945 151.005 143.596 152.6C142.247 154.195 141.572 156.311 141.572 158.948C141.572 160.543 141.909 162.03 142.584 163.41C143.259 164.759 144.163 165.848 145.298 166.676C146.463 167.473 147.782 167.872 149.254 167.872ZM166.672 171V147.08H170.674V151.082C171.533 149.794 172.622 148.721 173.94 147.862C175.259 146.973 176.762 146.528 178.448 146.528C180.35 146.528 181.898 146.988 183.094 147.908C184.321 148.828 185.18 150.055 185.67 151.588C186.621 150.177 187.74 148.981 189.028 148C190.347 147.019 191.972 146.528 193.904 146.528C196.511 146.528 198.443 147.356 199.7 149.012C200.988 150.637 201.632 152.769 201.632 155.406V171H197.492V155.728C197.492 154.072 197.109 152.738 196.342 151.726C195.576 150.683 194.518 150.162 193.168 150.162C191.788 150.162 190.5 150.683 189.304 151.726C188.139 152.738 187.112 153.934 186.222 155.314V171H182.082V155.728C182.082 154.072 181.699 152.738 180.932 151.726C180.166 150.683 179.108 150.162 177.758 150.162C176.409 150.162 175.136 150.668 173.94 151.68C172.744 152.661 171.702 153.827 170.812 155.176V171H166.672ZM218.332 171.552C214.897 171.552 212.168 170.463 210.144 168.286C208.151 166.078 207.154 162.996 207.154 159.04C207.154 156.648 207.599 154.517 208.488 152.646C209.408 150.745 210.681 149.257 212.306 148.184C213.931 147.08 215.817 146.528 217.964 146.528C220.264 146.528 222.165 147.034 223.668 148.046C225.201 149.027 226.351 150.361 227.118 152.048C227.885 153.735 228.268 155.59 228.268 157.614C228.268 158.687 228.222 159.73 228.13 160.742H211.386C211.662 162.981 212.444 164.729 213.732 165.986C215.02 167.243 216.722 167.872 218.838 167.872C220.218 167.872 221.46 167.734 222.564 167.458C223.668 167.151 224.726 166.768 225.738 166.308L226.704 169.85C225.6 170.341 224.358 170.739 222.978 171.046C221.598 171.383 220.049 171.552 218.332 171.552ZM211.34 157.384H224.45C224.45 155.053 223.867 153.259 222.702 152.002C221.537 150.745 219.927 150.116 217.872 150.116C216.093 150.116 214.621 150.745 213.456 152.002C212.291 153.229 211.585 155.023 211.34 157.384ZM255.948 171.552C253.648 171.552 251.824 170.801 250.474 169.298C249.156 167.765 248.496 165.587 248.496 162.766V151.542H244.356V147.954H248.588L249.462 140.41H252.636V147.954H259.26V151.542H252.636V163.088C252.636 164.867 253.004 166.109 253.74 166.814C254.507 167.519 255.412 167.872 256.454 167.872C257.221 167.872 257.942 167.749 258.616 167.504C259.322 167.259 259.966 166.967 260.548 166.63L261.698 169.942C261.085 170.31 260.257 170.663 259.214 171C258.172 171.368 257.083 171.552 255.948 171.552ZM275.035 171.552C272.766 171.552 270.727 171.031 268.917 169.988C267.108 168.915 265.682 167.443 264.639 165.572C263.627 163.671 263.121 161.493 263.121 159.04C263.121 156.464 263.643 154.241 264.685 152.37C265.728 150.499 267.154 149.058 268.963 148.046C270.773 147.034 272.797 146.528 275.035 146.528C277.274 146.528 279.283 147.034 281.061 148.046C282.871 149.058 284.297 150.499 285.339 152.37C286.413 154.21 286.949 156.403 286.949 158.948C286.949 161.493 286.428 163.717 285.385 165.618C284.343 167.489 282.917 168.945 281.107 169.988C279.329 171.031 277.305 171.552 275.035 171.552ZM275.035 167.872C277.458 167.872 279.344 167.059 280.693 165.434C282.043 163.778 282.717 161.647 282.717 159.04C282.717 157.445 282.38 155.989 281.705 154.67C281.031 153.321 280.111 152.247 278.945 151.45C277.811 150.622 276.507 150.208 275.035 150.208C272.613 150.208 270.727 151.005 269.377 152.6C268.028 154.195 267.353 156.311 267.353 158.948C267.353 160.543 267.691 162.03 268.365 163.41C269.04 164.759 269.945 165.848 271.079 166.676C272.245 167.473 273.563 167.872 275.035 167.872ZM44.144 225.552C41.9053 225.552 39.866 225.261 38.026 224.678C36.186 224.065 34.6373 223.267 33.38 222.286L35.588 218.606C36.692 219.526 37.934 220.277 39.314 220.86C40.694 221.443 42.304 221.734 44.144 221.734C46.352 221.734 48.1 221.274 49.388 220.354C50.676 219.434 51.32 218.192 51.32 216.628C51.32 215.739 51.136 214.957 50.768 214.282C50.4 213.577 49.6793 212.902 48.606 212.258C47.5633 211.583 46.0147 210.863 43.96 210.096C41.752 209.237 39.9887 208.379 38.67 207.52C37.3513 206.631 36.4007 205.634 35.818 204.53C35.266 203.395 34.99 202.061 34.99 200.528C34.99 198.995 35.404 197.615 36.232 196.388C37.0907 195.131 38.3327 194.134 39.958 193.398C41.614 192.631 43.6073 192.248 45.938 192.248C47.8393 192.248 49.5413 192.447 51.044 192.846C52.5773 193.214 54.0647 193.751 55.506 194.456L53.896 198.182C52.8533 197.569 51.6267 197.063 50.216 196.664C48.836 196.235 47.3793 196.02 45.846 196.02C43.822 196.02 42.2273 196.419 41.062 197.216C39.8967 198.013 39.314 199.041 39.314 200.298C39.314 201.095 39.4827 201.801 39.82 202.414C40.1573 203.027 40.8167 203.625 41.798 204.208C42.81 204.791 44.3127 205.45 46.306 206.186C48.698 207.075 50.584 208.011 51.964 208.992C53.3747 209.973 54.3713 211.047 54.954 212.212C55.5367 213.347 55.828 214.65 55.828 216.122C55.828 218.115 55.322 219.817 54.31 221.228C53.3287 222.639 51.9487 223.712 50.17 224.448C48.422 225.184 46.4133 225.552 44.144 225.552ZM71.8985 225.552C69.6292 225.552 67.5899 225.031 65.7805 223.988C63.9712 222.915 62.5452 221.443 61.5025 219.572C60.4905 217.671 59.9845 215.493 59.9845 213.04C59.9845 210.464 60.5059 208.241 61.5485 206.37C62.5912 204.499 64.0172 203.058 65.8265 202.046C67.6359 201.034 69.6599 200.528 71.8985 200.528C74.1372 200.528 76.1459 201.034 77.9245 202.046C79.7339 203.058 81.1599 204.499 82.2025 206.37C83.2759 208.21 83.8125 210.403 83.8125 212.948C83.8125 215.493 83.2912 217.717 82.2485 219.618C81.2059 221.489 79.7799 222.945 77.9705 223.988C76.1919 225.031 74.1679 225.552 71.8985 225.552ZM71.8985 221.872C74.3212 221.872 76.2072 221.059 77.5565 219.434C78.9059 217.778 79.5805 215.647 79.5805 213.04C79.5805 211.445 79.2432 209.989 78.5685 208.67C77.8939 207.321 76.9739 206.247 75.8085 205.45C74.6739 204.622 73.3705 204.208 71.8985 204.208C69.4759 204.208 67.5899 205.005 66.2405 206.6C64.8912 208.195 64.2165 210.311 64.2165 212.948C64.2165 214.543 64.5539 216.03 65.2285 217.41C65.9032 218.759 66.8079 219.848 67.9425 220.676C69.1079 221.473 70.4265 221.872 71.8985 221.872ZM98.9767 225.552C96.7074 225.552 94.7141 225.031 92.9967 223.988C91.3101 222.915 90.0067 221.443 89.0867 219.572C88.1667 217.671 87.7067 215.493 87.7067 213.04C87.7067 210.74 88.1667 208.639 89.0867 206.738C90.0374 204.837 91.3867 203.334 93.1347 202.23C94.8827 201.095 96.9374 200.528 99.2987 200.528C100.648 200.528 101.829 200.651 102.841 200.896C103.883 201.141 104.88 201.494 105.831 201.954L104.589 205.45C103.73 205.021 102.902 204.714 102.105 204.53C101.338 204.315 100.479 204.208 99.5287 204.208C97.3821 204.208 95.5727 204.99 94.1007 206.554C92.6594 208.087 91.9387 210.219 91.9387 212.948C91.9387 214.604 92.2454 216.107 92.8587 217.456C93.4721 218.805 94.3154 219.879 95.3887 220.676C96.4927 221.473 97.7807 221.872 99.2527 221.872C100.418 221.872 101.415 221.749 102.243 221.504C103.071 221.228 103.96 220.845 104.911 220.354L106.199 223.85C105.248 224.371 104.175 224.785 102.979 225.092C101.813 225.399 100.479 225.552 98.9767 225.552ZM111.014 225V201.08H115.154V225H111.014ZM113.084 196.986C112.287 196.986 111.597 196.695 111.014 196.112C110.462 195.529 110.186 194.855 110.186 194.088C110.186 193.199 110.447 192.493 110.968 191.972C111.489 191.451 112.195 191.19 113.084 191.19C113.881 191.19 114.556 191.481 115.108 192.064C115.691 192.616 115.982 193.291 115.982 194.088C115.982 194.947 115.721 195.652 115.2 196.204C114.679 196.725 113.973 196.986 113.084 196.986ZM132.082 225.552C128.647 225.552 125.918 224.463 123.894 222.286C121.901 220.078 120.904 216.996 120.904 213.04C120.904 210.648 121.349 208.517 122.238 206.646C123.158 204.745 124.431 203.257 126.056 202.184C127.681 201.08 129.567 200.528 131.714 200.528C134.014 200.528 135.915 201.034 137.418 202.046C138.951 203.027 140.101 204.361 140.868 206.048C141.635 207.735 142.018 209.59 142.018 211.614C142.018 212.687 141.972 213.73 141.88 214.742H125.136C125.412 216.981 126.194 218.729 127.482 219.986C128.77 221.243 130.472 221.872 132.588 221.872C133.968 221.872 135.21 221.734 136.314 221.458C137.418 221.151 138.476 220.768 139.488 220.308L140.454 223.85C139.35 224.341 138.108 224.739 136.728 225.046C135.348 225.383 133.799 225.552 132.082 225.552ZM125.09 211.384H138.2C138.2 209.053 137.617 207.259 136.452 206.002C135.287 204.745 133.677 204.116 131.622 204.116C129.843 204.116 128.371 204.745 127.206 206.002C126.041 207.229 125.335 209.023 125.09 211.384ZM155.907 225.552C153.607 225.552 151.783 224.801 150.433 223.298C149.115 221.765 148.455 219.587 148.455 216.766V205.542H144.315V201.954H148.547L149.421 194.41H152.595V201.954H159.219V205.542H152.595V217.088C152.595 218.867 152.963 220.109 153.699 220.814C154.466 221.519 155.371 221.872 156.413 221.872C157.18 221.872 157.901 221.749 158.575 221.504C159.281 221.259 159.925 220.967 160.507 220.63L161.657 223.942C161.044 224.31 160.216 224.663 159.173 225C158.131 225.368 157.042 225.552 155.907 225.552ZM165.967 235.672C165.047 235.672 164.235 235.58 163.529 235.396C162.855 235.212 162.318 234.997 161.919 234.752L162.839 231.302C163.207 231.517 163.667 231.701 164.219 231.854C164.771 232.007 165.385 232.084 166.059 232.084C167.347 232.084 168.497 231.67 169.509 230.842C170.521 230.014 171.487 228.389 172.407 225.966L173.465 223.206H171.257L161.919 202.184L165.599 200.528L174.523 220.446L181.469 200.712L185.287 202.184L176.501 226.196C175.612 228.649 174.646 230.566 173.603 231.946C172.561 233.326 171.411 234.292 170.153 234.844C168.896 235.396 167.501 235.672 165.967 235.672Z" fill="white"/>
<g clip-path="url(#clip0_292_55)">
<path d="M21 47.605C24.7894 47.605 25.3226 45.5518 25.3226 43.7095C25.3226 42.2371 25.1094 40.7646 24.8956 39.288C24.6819 37.8115 24.4681 36.3932 24.4681 34.919C24.4681 30.0764 27.6705 28.0232 32.2063 28.0232H44.4718L44.2151 30.9186H32.3675C29.2188 30.9186 28.1512 32.6031 28.1512 35.4455C28.1512 36.6559 28.3112 37.9192 28.525 39.1826C28.7381 40.499 28.8982 41.7617 28.8982 43.1835C28.9519 46.5519 27.4573 48.2364 25.0563 48.8684V48.9738C27.4573 49.5528 28.9519 51.3421 28.8982 54.7111C28.8982 56.1323 28.7381 57.4481 28.525 58.7114C28.3112 60.0278 28.1512 61.2381 28.1512 62.5015C28.1512 65.4464 29.3789 67.0814 32.3675 67.0814H33.3277V69.9751H32.2069C27.778 69.9751 24.4681 68.0815 24.4681 62.7648C24.4681 61.3436 24.6819 59.8699 24.895 58.4481C25.1082 57.0263 25.322 55.6057 25.322 54.1845C25.322 52.553 24.7888 50.2896 20.9994 50.2896L21 47.605Z" fill="black"/>
<path d="M32.4661 69.975L47.0563 18.9988H50.6121L35.97 69.975H32.4661Z" fill="black"/>
<path d="M69.0006 50.395C65.2113 50.395 64.678 52.4476 64.678 54.2899C64.678 55.7624 64.8912 57.2348 65.1044 58.7114C65.3176 60.188 65.5313 61.6068 65.5313 63.0805C65.5313 67.9237 62.3295 69.9763 57.7932 69.9763H45.5282L45.785 67.0814H57.6331C60.7818 67.0814 61.8495 65.3969 61.8495 62.5545C61.8495 61.3436 61.6894 60.0808 61.4757 58.8168C61.2625 57.5011 61.1024 56.2377 61.1024 54.8165C61.0487 51.4475 62.5433 49.763 64.9444 49.1317V49.0262C62.5433 48.4473 61.0487 46.6573 61.1024 43.2884C61.1024 41.8672 61.2625 40.5514 61.4757 39.288C61.6894 37.9722 61.8495 36.7613 61.8495 35.4979C61.8495 32.553 60.6218 30.9186 57.6331 30.9186H56.673V28.0232H57.7932C62.2227 28.0232 65.5313 29.9185 65.5313 35.2353C65.5313 36.6565 65.3182 38.1301 65.1044 39.5513C64.8906 40.9725 64.678 42.3937 64.678 43.8149C64.678 45.447 65.2113 47.7104 69.0006 47.7104V50.395Z" fill="black"/>
<path d="M57.5346 28.0232L42.9444 79H39.3885L54.0307 28.0232H57.5346Z" fill="black"/>
<path d="M54.3656 19L48.3299 40.0855H46.8604L52.917 19H54.3656Z" fill="black"/>
<path d="M43.1415 57.9128L37.1063 78.9983H35.6344L41.6916 57.9128H43.1415Z" fill="black"/>
</g>
<path d="M75.2559 32.6211V41H74.1719V32.6211H75.2559ZM77.1367 34.8477H81.9414V35.7266L78.2676 40.1797H81.8242V41H77.0195V40.1797L80.7402 35.7266H77.1367V34.8477ZM83.4062 33.8516H84.0859L84.3203 34.8477H85.9844V35.7266H84.4902V39.2598C84.4902 39.834 84.7383 40.1211 85.2344 40.1211H85.9844V41H84.9531C83.9219 41 83.4062 40.4473 83.4062 39.3418V33.8516ZM89.9043 34.8477C91.6543 34.8477 92.5293 35.7129 92.5293 37.4434C92.5293 37.6895 92.5117 37.9531 92.4766 38.2344H88.1582C88.1582 39.4922 88.8926 40.1211 90.3613 40.1211C91.0605 40.1211 91.6816 40.043 92.2246 39.8867V40.7656C91.6816 40.9219 91.0215 41 90.2441 41C88.1309 41 87.0742 39.9512 87.0742 37.8535C87.0742 35.8496 88.0176 34.8477 89.9043 34.8477ZM88.1582 37.332H91.4863C91.4629 36.2539 90.9355 35.7148 89.9043 35.7148C88.8105 35.7148 88.2285 36.2539 88.1582 37.332ZM98.6172 40.8242C98.1094 40.9414 97.5625 41 96.9766 41C94.7891 41 93.6953 39.9355 93.6953 37.8066C93.6953 35.834 94.7891 34.8477 96.9766 34.8477C97.5625 34.8477 98.1094 34.9062 98.6172 35.0234V35.9023C98.1094 35.7852 97.543 35.7266 96.918 35.7266C95.4922 35.7266 94.7793 36.4199 94.7793 37.8066C94.7793 39.3496 95.4922 40.1211 96.918 40.1211C97.543 40.1211 98.1094 40.0625 98.6172 39.9453V40.8242ZM100 41V32.6211H101.084V35.5156C101.607 35.0703 102.246 34.8477 103 34.8477C104.535 34.8477 105.303 35.6113 105.303 37.1387V41H104.219V37.1211C104.219 36.207 103.764 35.75 102.854 35.75C102.232 35.75 101.643 36.0098 101.084 36.5293V41H100ZM73.8789 53.707V52.7109C74.7578 53.0234 75.707 53.1797 76.7266 53.1797C78.168 53.1797 78.8887 52.6523 78.8887 51.5977C78.8887 50.6992 78.3574 50.25 77.2949 50.25H76.2168C74.4629 50.25 73.5859 49.4883 73.5859 47.9648C73.5859 46.3633 74.709 45.5625 76.9551 45.5625C77.9316 45.5625 78.8398 45.6797 79.6797 45.9141V46.9102C78.8398 46.5977 77.9316 46.4414 76.9551 46.4414C75.4316 46.4414 74.6699 46.9492 74.6699 47.9648C74.6699 48.8633 75.1855 49.3125 76.2168 49.3125H77.2949C79.0801 49.3125 79.9727 50.0742 79.9727 51.5977C79.9727 53.2383 78.8906 54.0586 76.7266 54.0586C75.707 54.0586 74.7578 53.9414 73.8789 53.707ZM82.2285 50.9004C82.2285 52.3809 82.8438 53.1211 84.0742 53.1211C85.3047 53.1211 85.9199 52.3809 85.9199 50.9004C85.9199 49.4512 85.3047 48.7266 84.0742 48.7266C82.8438 48.7266 82.2285 49.4512 82.2285 50.9004ZM81.1445 50.9238C81.1445 48.873 82.1211 47.8477 84.0742 47.8477C86.0273 47.8477 87.0039 48.873 87.0039 50.9238C87.0039 52.9707 86.0273 53.9941 84.0742 53.9941C82.1289 53.9941 81.1523 52.9707 81.1445 50.9238ZM88.4688 54V47.5488C88.4688 46.0605 89.3125 45.3164 91 45.3164C91.4648 45.3164 91.9023 45.3945 92.3125 45.5508V46.4297C91.9258 46.2734 91.4863 46.1953 90.9941 46.1953C90.0332 46.1953 89.5527 46.6309 89.5527 47.502V47.8477H91.457V48.7266H89.5527V54H88.4688ZM92.6406 46.8516H93.3203L93.5547 47.8477H95.2188V48.7266H93.7246V52.2598C93.7246 52.834 93.9727 53.1211 94.4688 53.1211H95.2188V54H94.1875C93.1562 54 92.6406 53.4473 92.6406 52.3418V46.8516ZM95.9277 47.8477H97.0234L98.1133 52.6699L99.7129 47.8477H100.691L102.402 52.6699L103.387 47.8477H104.535L102.93 54H101.939L100.176 49.4004L98.5 54H97.4863L95.9277 47.8477ZM105.332 52.1426C105.332 50.8809 106.164 50.25 107.828 50.25C108.363 50.25 108.898 50.2891 109.434 50.3672V49.7871C109.434 49.0801 108.881 48.7266 107.775 48.7266C107.143 48.7266 106.494 48.8242 105.83 49.0195V48.1406C106.494 47.9453 107.143 47.8477 107.775 47.8477C109.604 47.8477 110.518 48.4844 110.518 49.7578V54H109.908L109.533 53.3906C108.92 53.7969 108.252 54 107.529 54C106.064 54 105.332 53.3809 105.332 52.1426ZM107.828 51.1289C106.887 51.1289 106.416 51.4609 106.416 52.125C106.416 52.7891 106.787 53.1211 107.529 53.1211C108.279 53.1211 108.914 52.9219 109.434 52.5234V51.2461C108.898 51.168 108.363 51.1289 107.828 51.1289ZM112.281 54V47.8477H113.014L113.207 48.6328C113.746 48.1094 114.395 47.8477 115.152 47.8477V48.75C114.418 48.75 113.822 49.0098 113.365 49.5293V54H112.281ZM118.779 47.8477C120.529 47.8477 121.404 48.7129 121.404 50.4434C121.404 50.6895 121.387 50.9531 121.352 51.2344H117.033C117.033 52.4922 117.768 53.1211 119.236 53.1211C119.936 53.1211 120.557 53.043 121.1 52.8867V53.7656C120.557 53.9219 119.896 54 119.119 54C117.006 54 115.949 52.9512 115.949 50.8535C115.949 48.8496 116.893 47.8477 118.779 47.8477ZM117.033 50.332H120.361C120.338 49.2539 119.811 48.7148 118.779 48.7148C117.686 48.7148 117.104 49.2539 117.033 50.332ZM73.8789 66.707V65.7109C74.7578 66.0234 75.707 66.1797 76.7266 66.1797C78.168 66.1797 78.8887 65.6523 78.8887 64.5977C78.8887 63.6992 78.3574 63.25 77.2949 63.25H76.2168C74.4629 63.25 73.5859 62.4883 73.5859 60.9648C73.5859 59.3633 74.709 58.5625 76.9551 58.5625C77.9316 58.5625 78.8398 58.6797 79.6797 58.9141V59.9102C78.8398 59.5977 77.9316 59.4414 76.9551 59.4414C75.4316 59.4414 74.6699 59.9492 74.6699 60.9648C74.6699 61.8633 75.1855 62.3125 76.2168 62.3125H77.2949C79.0801 62.3125 79.9727 63.0742 79.9727 64.5977C79.9727 66.2383 78.8906 67.0586 76.7266 67.0586C75.707 67.0586 74.7578 66.9414 73.8789 66.707ZM82.2285 63.9004C82.2285 65.3809 82.8438 66.1211 84.0742 66.1211C85.3047 66.1211 85.9199 65.3809 85.9199 63.9004C85.9199 62.4512 85.3047 61.7266 84.0742 61.7266C82.8438 61.7266 82.2285 62.4512 82.2285 63.9004ZM81.1445 63.9238C81.1445 61.873 82.1211 60.8477 84.0742 60.8477C86.0273 60.8477 87.0039 61.873 87.0039 63.9238C87.0039 65.9707 86.0273 66.9941 84.0742 66.9941C82.1289 66.9941 81.1523 65.9707 81.1445 63.9238ZM93.0977 66.8242C92.5898 66.9414 92.043 67 91.457 67C89.2695 67 88.1758 65.9355 88.1758 63.8066C88.1758 61.834 89.2695 60.8477 91.457 60.8477C92.043 60.8477 92.5898 60.9062 93.0977 61.0234V61.9023C92.5898 61.7852 92.0234 61.7266 91.3984 61.7266C89.9727 61.7266 89.2598 62.4199 89.2598 63.8066C89.2598 65.3496 89.9727 66.1211 91.3984 66.1211C92.0234 66.1211 92.5898 66.0625 93.0977 65.9453V66.8242ZM95.6816 60.8477V67H94.5977V60.8477H95.6816ZM95.6816 58.6211V59.6465H94.5977V58.6211H95.6816ZM100.1 60.8477C101.85 60.8477 102.725 61.7129 102.725 63.4434C102.725 63.6895 102.707 63.9531 102.672 64.2344H98.3535C98.3535 65.4922 99.0879 66.1211 100.557 66.1211C101.256 66.1211 101.877 66.043 102.42 65.8867V66.7656C101.877 66.9219 101.217 67 100.439 67C98.3262 67 97.2695 65.9512 97.2695 63.8535C97.2695 61.8496 98.2129 60.8477 100.1 60.8477ZM98.3535 63.332H101.682C101.658 62.2539 101.131 61.7148 100.1 61.7148C99.0059 61.7148 98.4238 62.2539 98.3535 63.332ZM104.184 59.8516H104.863L105.098 60.8477H106.762V61.7266H105.268V65.2598C105.268 65.834 105.516 66.1211 106.012 66.1211H106.762V67H105.73C104.699 67 104.184 66.4473 104.184 65.3418V59.8516ZM107.412 60.8477H108.59L110.33 65.6523L112.129 60.8477H113.277L110.723 67.1816C110.27 68.2988 109.59 68.9961 108.684 69.2734L108.268 68.5059C108.955 68.2051 109.455 67.7148 109.768 67.0352L107.412 60.8477Z" fill="black"/>
<defs>
<clipPath id="clip0_292_55">
<rect width="48" height="60" fill="white" transform="translate(21 19)"/>
</clipPath>
</defs>
</svg>
